{"glyphs":{"0":{"ha":515,"x_min":101,"x_max":646,"o":"m 347 118 l 472 396 q 476 414 476 407 q 454 432 476 432 q 403 396 419 432 l 279 118 q 274 94 274 106 q 294 74 274 74 q 347 118 328 74 m 567 201 q 340 0 476 0 l 182 0 q 101 76 101 0 q 135 201 101 125 l 189 324 q 282 453 222 399 q 422 515 351 515 l 558 515 q 646 425 646 515 q 621 324 646 379 l 567 201 z "},"1":{"ha":239,"x_min":33,"x_max":397,"o":"m 207 0 l 33 0 l 204 386 q 207 400 207 393 q 172 436 207 436 l 153 436 q 119 474 119 436 q 157 515 119 515 l 263 515 q 358 506 329 515 q 397 454 397 492 q 379 386 397 428 l 207 0 z "},"2":{"ha":460,"x_min":24,"x_max":638,"o":"m 626 390 q 513 283 596 322 q 367 233 440 258 q 267 157 288 204 l 235 83 l 465 83 l 429 0 l 24 0 l 99 169 q 210 282 133 249 q 341 318 274 299 q 431 386 408 338 q 436 408 436 399 q 399 439 436 439 l 281 439 l 253 515 l 536 515 q 609 494 581 515 q 638 438 638 474 q 626 390 638 417 z "},"3":{"ha":460,"x_min":24,"x_max":638,"o":"m 508 124 q 424 34 483 68 q 308 0 365 0 l 24 0 l 119 76 l 238 76 q 298 105 268 76 q 328 165 328 133 q 290 197 328 192 q 253 229 253 201 q 283 289 253 260 q 345 318 314 318 q 406 346 376 318 q 435 406 435 374 q 399 439 435 439 l 281 439 l 253 515 l 536 515 q 609 494 581 515 q 638 438 638 474 q 628 392 638 417 q 444 258 586 300 q 518 168 518 229 q 508 124 518 147 z "},"4":{"ha":572,"x_min":119,"x_max":657,"o":"m 626 201 l 553 201 l 463 0 l 288 0 l 376 201 l 119 201 l 258 515 q 343 488 307 508 q 388 421 388 460 q 379 386 388 404 l 328 269 l 407 269 l 419 296 q 517 406 454 376 q 649 425 561 425 l 651 425 l 583 269 l 657 269 l 626 201 z "},"5":{"ha":476,"x_min":24,"x_max":681,"o":"m 526 169 q 406 29 481 67 q 238 0 347 0 l 24 0 l 60 83 l 235 83 q 347 151 317 83 q 356 189 356 172 q 243 244 356 244 q 125 229 185 244 l 253 515 l 681 515 l 585 439 l 401 439 l 347 318 l 383 318 q 497 307 463 318 q 546 244 546 290 q 526 169 546 214 z "},"6":{"ha":485,"x_min":69,"x_max":638,"o":"m 389 175 q 396 204 396 192 q 336 244 396 244 q 290 240 315 244 l 260 172 q 242 113 242 132 q 276 83 242 83 q 343 114 307 83 q 389 175 375 143 m 540 169 q 418 29 493 67 q 250 0 361 0 l 156 0 q 69 68 69 0 q 85 132 69 96 l 190 368 q 276 474 219 433 q 397 515 332 515 l 638 515 l 542 439 q 515 439 533 439 q 489 440 499 440 q 349 372 379 440 l 328 324 q 421 340 375 340 q 518 313 481 340 q 556 236 556 285 q 540 169 556 206 z "},"7":{"ha":467,"x_min":33,"x_max":668,"o":"m 626 386 l 229 0 l 33 0 l 429 386 q 444 414 444 400 q 408 436 444 436 l 265 436 q 232 474 232 436 q 269 515 232 515 l 554 515 q 668 458 668 515 q 626 386 668 426 z "},"8":{"ha":485,"x_min":83,"x_max":619,"o":"m 397 201 q 346 240 397 240 q 250 172 279 240 q 239 126 239 149 q 276 83 239 83 q 356 122 315 83 q 397 201 397 161 m 465 379 q 469 399 469 390 q 426 433 469 433 q 357 388 378 433 q 353 367 353 375 q 389 336 353 336 q 465 379 446 336 m 540 169 q 442 50 508 100 q 307 0 376 0 l 168 0 q 83 90 83 0 q 101 169 83 128 q 218 283 129 229 q 204 328 204 301 q 213 368 204 349 q 431 515 278 515 l 501 515 q 587 492 554 515 q 619 426 619 468 q 606 368 619 400 q 526 286 585 321 q 551 218 551 253 q 540 169 551 194 z "},"9":{"ha":499,"x_min":92,"x_max":649,"o":"m 458 342 q 476 403 476 382 q 442 432 476 432 q 377 401 411 432 q 329 340 343 371 q 322 310 322 322 q 383 269 322 269 q 428 274 403 269 l 458 342 m 528 146 q 442 40 499 81 q 321 -1 386 -1 l 92 -1 l 189 75 q 209 75 194 75 q 232 75 224 75 q 369 142 339 75 l 392 192 q 297 174 343 174 q 200 201 238 174 q 163 278 163 229 q 178 344 163 308 q 300 485 225 447 q 468 514 358 514 l 563 514 q 649 446 649 514 q 633 382 649 418 l 528 146 z "},"!":{"ha":403,"x_min":182,"x_max":729,"o":"m 411 78 q 346 19 394 42 q 265 0 304 0 q 210 13 233 0 q 182 54 182 28 q 188 78 182 65 q 253 138 204 115 q 335 156 294 156 q 391 142 365 156 q 417 103 417 128 q 411 78 417 90 m 460 199 l 286 282 l 504 774 q 507 783 507 778 q 491 810 507 797 q 461 822 475 822 l 442 822 q 407 861 407 822 q 444 901 407 901 l 561 901 q 729 826 729 901 q 715 774 729 803 l 460 199 z "},"\"":{"ha":351,"x_min":338,"x_max":710,"o":"m 531 810 q 472 722 515 775 q 417 642 429 668 q 363 600 399 600 q 338 622 338 600 q 343 642 338 631 q 359 725 356 671 q 375 810 363 779 q 488 888 410 888 q 542 850 542 888 q 531 810 542 833 m 699 810 q 640 722 683 775 q 586 642 597 668 q 531 600 567 600 q 507 622 507 600 q 511 642 507 631 q 528 725 525 671 q 544 810 531 779 q 656 888 579 888 q 710 850 710 888 q 699 810 710 833 z "},"#":{"ha":528,"x_min":250,"x_max":793,"o":"m 521 549 l 564 646 l 501 646 l 458 549 l 521 549 m 664 453 l 567 453 l 524 357 l 436 357 l 478 453 l 415 453 l 372 357 l 290 357 l 333 453 l 250 453 l 293 549 l 375 549 l 418 646 l 336 646 l 379 742 l 461 742 l 501 831 l 583 831 l 544 742 l 607 742 l 647 831 l 735 831 l 696 742 l 793 742 l 750 646 l 653 646 l 610 549 l 707 549 l 664 453 z "},"$":{"ha":485,"x_min":97,"x_max":800,"o":"m 647 442 q 418 275 578 286 l 382 192 l 282 192 l 318 274 l 264 274 q 152 318 207 274 q 97 418 97 363 q 106 458 97 439 l 188 508 q 183 479 183 493 q 238 386 183 422 q 354 356 288 356 q 463 415 435 356 q 469 449 469 433 q 425 513 469 492 q 344 549 349 547 q 304 614 304 575 q 317 664 304 636 q 403 756 342 719 q 517 788 458 788 l 547 788 l 583 868 l 682 868 l 647 788 l 800 788 l 704 711 l 586 711 q 508 658 532 711 q 501 631 501 643 q 542 589 501 603 q 621 563 582 575 q 663 503 663 543 q 647 442 663 478 z "},"%":{"ha":463,"x_min":246,"x_max":789,"o":"m 558 472 l 588 539 q 590 549 590 544 q 581 558 590 558 q 556 539 564 558 l 526 472 q 524 460 524 465 q 532 449 524 449 q 558 472 549 449 m 478 765 l 507 831 q 510 842 510 838 q 500 850 510 850 q 475 831 483 850 l 446 765 q 443 751 443 758 q 451 742 443 742 q 478 765 468 742 m 658 506 q 551 410 615 410 l 478 410 q 438 443 438 410 q 456 506 438 465 q 568 603 499 603 l 632 603 q 674 563 674 603 q 658 506 674 539 m 789 894 l 310 410 l 246 410 l 726 894 l 789 894 m 578 799 q 471 703 535 703 l 397 703 q 357 736 357 703 q 376 799 357 757 q 488 894 418 894 l 551 894 q 593 856 593 894 q 578 799 593 832 z "},"&":{"ha":738,"x_min":128,"x_max":908,"o":"m 435 82 q 447 139 438 118 l 576 428 q 396 310 428 383 l 321 143 q 313 106 313 122 q 331 83 313 83 l 435 82 m 889 207 q 738 60 851 122 q 546 0 632 0 q 486 19 517 0 q 400 0 440 0 l 294 0 q 128 108 128 0 q 161 235 128 158 l 188 294 q 297 422 219 367 q 449 492 369 474 q 343 608 343 515 q 358 675 343 640 l 400 769 q 544 878 432 840 q 714 906 628 906 q 840 885 788 906 q 908 803 908 857 q 906 781 908 793 l 700 706 l 738 792 q 739 796 739 794 q 686 818 739 818 q 599 764 622 818 l 547 650 q 542 622 542 639 q 563 543 542 583 q 608 501 583 503 l 651 597 l 854 597 l 811 501 l 867 501 l 836 435 l 781 435 l 649 139 q 647 131 647 135 q 661 122 647 122 q 767 168 703 122 q 851 257 832 214 l 889 207 z "},"'":{"ha":318,"x_min":414,"x_max":649,"o":"m 643 810 q 433 650 589 690 l 422 678 q 507 732 488 689 q 483 729 494 729 q 414 782 414 729 q 419 810 414 794 q 485 868 436 846 q 567 888 526 888 q 623 874 597 888 q 649 833 649 860 q 643 810 649 822 z "},"(":{"ha":329,"x_min":97,"x_max":689,"o":"m 301 15 q 186 0 242 0 q 121 24 144 0 q 97 83 97 47 q 110 139 97 110 l 388 763 q 472 859 413 818 q 586 900 531 900 q 689 886 643 900 l 644 786 q 631 788 638 788 q 589 763 600 788 l 311 139 q 310 128 310 133 q 331 114 310 114 q 346 115 338 114 l 301 15 z "},")":{"ha":329,"x_min":43,"x_max":635,"o":"m 344 139 q 260 41 319 82 q 146 0 201 0 q 43 15 89 0 l 88 115 q 100 114 94 114 q 143 139 131 114 l 419 763 q 422 772 422 768 q 400 788 422 788 q 386 786 393 788 l 431 886 q 546 900 489 900 q 611 877 588 900 q 635 818 635 854 q 622 763 635 790 l 344 139 z "},"*":{"ha":624,"x_min":176,"x_max":867,"o":"m 779 526 q 656 483 731 499 q 549 449 581 467 q 624 419 567 433 q 707 376 681 406 q 726 329 726 354 q 692 264 726 294 q 622 233 658 233 q 569 258 592 233 q 539 332 546 282 q 521 408 532 389 q 513 346 513 381 q 513 331 513 340 q 513 317 513 322 q 494 228 513 268 q 379 132 453 132 q 335 175 335 132 q 349 228 335 197 q 415 328 371 279 q 482 411 467 383 q 393 333 451 392 q 296 258 340 282 q 219 233 251 233 q 176 275 176 233 q 263 376 176 329 q 385 419 315 406 q 485 449 454 433 q 409 483 469 467 q 324 526 349 499 q 303 574 303 547 q 338 639 303 608 q 408 669 372 669 q 462 645 439 669 q 492 563 485 621 q 515 485 500 506 q 528 564 528 517 q 528 574 528 568 q 528 583 528 581 q 547 681 528 639 q 663 775 589 775 q 707 732 707 775 q 693 681 707 710 q 622 575 671 629 q 556 488 571 517 q 647 567 588 508 q 747 645 701 621 q 824 669 792 669 q 867 628 867 669 q 779 526 867 574 z "},"+":{"ha":318,"x_min":221,"x_max":513,"o":"m 482 435 l 385 435 l 339 333 l 272 333 l 317 435 l 221 435 l 251 501 l 347 501 l 389 596 l 456 596 l 414 501 l 513 501 l 482 435 z "},",":{"ha":318,"x_min":88,"x_max":322,"o":"m 317 78 q 108 -81 264 -42 l 96 -54 q 182 0 163 -42 q 158 -3 169 -3 q 88 51 88 -3 q 94 78 88 64 q 160 138 111 115 q 240 156 201 156 q 297 142 272 156 q 322 103 322 128 q 317 78 322 90 z "},"-":{"ha":318,"x_min":225,"x_max":517,"o":"m 488 435 l 225 435 l 256 501 l 517 501 l 488 435 z "},".":{"ha":318,"x_min":89,"x_max":322,"o":"m 317 78 q 251 19 300 42 q 171 0 211 0 q 114 14 139 0 q 89 54 89 28 q 94 78 89 65 q 160 138 111 115 q 240 156 201 156 q 297 142 272 156 q 322 103 322 128 q 317 78 322 90 z "},"/":{"ha":508,"x_min":85,"x_max":819,"o":"m 819 788 l 204 113 l 85 113 l 700 788 l 819 788 z "},":":{"ha":318,"x_min":89,"x_max":424,"o":"m 317 78 q 251 19 300 42 q 171 0 211 0 q 114 14 139 0 q 89 54 89 28 q 94 78 89 65 q 160 138 111 115 q 240 156 201 156 q 297 142 272 156 q 322 103 322 128 q 317 78 322 90 m 417 303 q 351 244 401 267 q 271 225 311 225 q 217 238 239 225 q 189 279 189 253 q 194 303 189 290 q 260 363 211 340 q 340 381 301 381 q 398 367 372 381 q 424 328 424 353 q 417 303 424 315 z "},";":{"ha":318,"x_min":88,"x_max":424,"o":"m 317 78 q 108 -81 264 -42 l 96 -54 q 182 0 163 -42 q 158 -3 169 -3 q 88 51 88 -3 q 94 78 88 64 q 160 138 111 115 q 240 156 201 156 q 297 142 272 156 q 322 103 322 128 q 317 78 322 90 m 417 303 q 351 244 401 267 q 271 225 311 225 q 217 238 239 225 q 189 279 189 253 q 194 303 189 290 q 260 363 211 340 q 340 381 301 381 q 398 367 372 381 q 424 328 424 353 q 417 303 424 315 z "},"=":{"ha":318,"x_min":175,"x_max":567,"o":"m 438 322 l 175 322 l 206 389 l 467 389 l 438 322 m 538 547 l 275 547 l 306 614 l 567 614 l 538 547 z "},"?":{"ha":672,"x_min":169,"x_max":963,"o":"m 397 78 q 332 19 381 42 q 251 0 290 0 q 194 14 219 0 q 169 54 169 28 q 175 78 169 65 q 240 138 192 115 q 321 156 281 156 q 378 142 353 156 q 403 103 403 128 q 397 78 403 90 m 921 688 q 664 467 867 564 q 588 433 625 450 q 526 379 539 407 l 446 199 l 272 282 l 315 379 q 369 451 336 426 q 453 492 396 471 q 597 569 511 514 q 715 675 697 635 l 744 743 q 753 772 753 760 q 683 817 753 817 q 588 797 653 817 q 494 776 524 776 q 388 829 438 776 l 421 903 q 517 865 474 865 q 608 889 532 865 q 707 904 658 904 q 863 886 797 904 q 963 799 963 860 q 954 760 963 781 l 921 688 z "},"@":{"ha":944,"x_min":260,"x_max":1057,"o":"m 674 351 l 765 557 q 767 563 767 560 q 750 575 767 575 q 721 556 729 575 l 632 357 q 625 326 625 339 q 636 313 625 313 q 674 351 656 313 m 950 406 q 853 297 922 344 q 722 250 783 250 q 688 282 690 250 q 608 249 650 249 q 507 318 507 249 q 551 458 507 360 q 632 578 583 529 q 757 636 692 636 q 829 603 804 636 l 838 624 l 928 624 l 878 514 q 818 376 858 468 q 813 358 813 365 q 828 346 813 346 q 910 443 867 346 l 963 563 q 985 651 985 613 q 908 725 985 725 l 653 725 q 610 681 629 725 l 426 271 q 417 229 417 247 q 503 185 417 185 q 531 186 513 185 q 557 186 550 186 l 568 115 l 333 115 q 260 181 260 115 q 283 267 260 217 l 436 611 q 681 788 515 788 l 950 788 q 1028 757 999 788 q 1057 679 1057 726 q 1042 611 1057 646 l 950 406 z "},"A":{"ha":663,"x_min":92,"x_max":1001,"o":"m 513 257 l 694 664 q 706 725 706 692 q 644 817 706 817 q 593 774 613 817 l 304 125 q 300 110 300 117 q 315 97 300 97 q 364 113 333 97 q 513 257 474 167 m 901 207 q 747 64 867 131 q 536 0 633 0 q 456 82 456 0 q 458 108 456 94 q 186 0 347 0 q 92 85 92 0 q 114 174 92 124 l 361 728 q 493 864 400 815 q 667 907 575 907 q 828 839 788 907 l 856 901 l 1001 901 l 661 139 q 660 132 660 135 q 674 122 660 122 q 780 167 717 122 q 864 257 843 213 l 901 207 z "},"B":{"ha":656,"x_min":67,"x_max":981,"o":"m 542 257 l 565 310 q 575 353 575 332 q 482 460 575 418 l 333 125 q 329 110 329 117 q 344 97 329 97 q 396 114 364 97 q 542 257 503 169 m 717 650 l 763 750 q 768 778 768 765 q 713 824 768 824 q 613 750 644 824 l 504 510 q 717 650 685 579 m 731 229 q 531 47 676 108 q 282 0 417 0 l 67 0 l 411 774 q 413 783 413 778 q 397 810 413 797 q 367 822 382 822 l 126 822 q 93 861 93 822 q 131 901 93 901 l 468 901 q 625 861 596 901 q 794 906 683 906 q 914 885 863 906 q 981 807 981 858 q 971 767 981 789 l 939 696 q 831 565 906 621 q 675 492 756 508 q 776 367 776 463 q 760 294 776 332 l 731 229 z "},"C":{"ha":503,"x_min":115,"x_max":874,"o":"m 742 207 q 583 61 707 128 q 388 0 469 0 l 282 0 q 115 110 115 0 q 149 235 115 160 l 353 694 q 614 897 443 897 l 786 897 q 874 829 874 897 q 869 792 874 813 l 663 717 l 696 792 q 697 797 697 794 q 657 815 697 815 q 600 790 611 815 l 311 143 q 300 104 300 115 q 344 83 300 83 q 614 163 493 83 q 706 257 685 211 l 743 208 l 742 207 z "},"D":{"ha":656,"x_min":67,"x_max":981,"o":"m 542 257 l 763 750 q 768 778 768 765 q 713 824 768 824 q 613 750 644 824 l 333 125 q 329 110 329 117 q 344 97 329 97 q 396 114 364 97 q 542 257 503 169 m 731 229 q 531 47 676 108 q 282 0 417 0 l 67 0 l 411 774 q 413 783 413 778 q 397 810 413 797 q 367 822 382 822 l 126 822 q 93 861 93 822 q 131 901 93 901 l 468 901 q 625 861 596 901 q 794 906 683 906 q 914 885 863 906 q 981 807 981 858 q 971 767 981 789 l 731 229 z "},"E":{"ha":506,"x_min":93,"x_max":883,"o":"m 754 207 q 596 61 719 128 q 400 0 482 0 l 294 0 q 128 110 128 0 q 161 235 128 160 l 188 294 q 297 422 219 367 q 449 492 368 474 q 373 533 404 501 q 342 607 342 564 q 385 738 343 644 q 406 781 394 761 q 367 822 382 822 l 126 822 q 93 861 93 822 q 131 901 93 901 l 468 901 q 543 879 517 901 q 721 908 626 908 q 883 817 883 908 q 881 792 883 806 l 674 717 l 707 792 q 708 797 708 794 q 671 818 708 818 q 599 764 622 818 l 547 650 q 540 621 540 635 q 635 510 540 564 l 613 460 q 396 310 438 404 l 321 143 q 310 104 310 117 q 356 82 310 82 q 553 124 449 82 q 717 257 681 175 l 754 208 l 754 207 z "},"F":{"ha":318,"x_min":-50,"x_max":963,"o":"m 121 121 q 231 368 156 203 q 128 249 174 354 l 69 118 q 68 113 68 115 q 88 99 68 99 q 121 121 110 99 m 963 901 q 894 824 911 846 q 846 739 861 781 l 758 739 l 761 746 q 806 822 786 801 l 636 822 q 622 774 635 800 l 501 501 l 707 501 l 676 435 l 471 435 l 344 150 q 240 36 311 76 q 100 0 178 0 q 4 19 49 0 q -50 83 -50 43 q -43 113 -50 97 l 18 249 q 290 501 99 429 l 411 774 q 413 783 413 778 q 397 810 413 797 q 367 822 382 822 l 126 822 q 93 861 93 822 q 131 901 93 901 l 963 901 z "},"G":{"ha":654,"x_min":69,"x_max":896,"o":"m 324 -107 q 382 24 343 -64 q 315 -36 357 17 q 272 -112 272 -89 q 293 -128 272 -128 q 324 -107 314 -128 m 494 254 l 596 482 l 489 540 l 376 289 q 367 250 367 267 q 383 229 367 229 q 494 254 425 229 m 882 207 q 749 76 851 138 q 576 7 658 22 l 540 -75 q 436 -189 508 -147 q 297 -228 371 -228 q 204 -206 242 -228 q 163 -135 163 -179 q 175 -85 163 -111 q 278 63 211 -1 q 432 139 357 139 q 443 139 438 139 l 453 160 q 347 147 408 147 q 181 256 181 147 q 214 381 181 306 l 388 774 q 390 783 390 778 q 375 810 390 797 q 344 822 360 822 l 104 822 q 69 861 69 822 q 108 901 69 901 l 446 901 q 554 890 517 901 q 614 897 583 897 l 807 897 q 896 829 896 897 q 890 792 896 813 l 685 717 l 718 792 q 718 796 718 794 q 667 815 718 815 q 600 790 611 815 l 517 603 l 778 458 l 649 168 q 642 146 642 154 q 664 128 642 128 q 765 172 704 128 q 844 257 826 217 l 882 208 l 882 207 z "},"H":{"ha":688,"x_min":67,"x_max":1031,"o":"m 931 207 q 776 64 896 131 q 565 0 663 0 q 499 24 528 0 q 471 82 471 47 q 479 118 471 100 l 621 435 l 471 435 l 278 0 l 67 0 l 411 774 q 413 783 413 778 q 397 810 413 797 q 367 822 382 822 l 126 822 q 93 861 93 822 q 131 901 93 901 l 468 901 q 635 826 635 901 q 622 774 635 803 l 501 501 l 651 501 l 829 901 l 1031 901 l 690 139 q 689 132 689 135 q 703 122 689 122 q 810 167 746 122 q 893 257 874 213 l 931 207 z "},"I":{"ha":318,"x_min":79,"x_max":647,"o":"m 290 0 l 79 0 l 422 774 q 425 783 425 778 q 410 810 425 797 q 379 822 394 822 l 139 822 q 104 861 104 822 q 142 901 104 901 l 481 901 q 647 826 647 901 q 633 774 647 803 l 290 0 z "},"J":{"ha":421,"x_min":-86,"x_max":739,"o":"m 124 -104 l 264 210 q 183 164 231 201 q 119 92 135 126 l 32 -107 q 31 -117 31 -108 q 76 -125 31 -125 q 124 -104 114 -125 m 349 -75 q 244 -189 315 -149 q 104 -225 181 -225 q -12 -204 46 -225 q -86 -135 -86 -178 q -81 -112 -86 -124 l 10 92 q 139 243 46 172 q 324 344 221 306 l 514 774 q 517 783 517 778 q 501 810 517 797 q 471 822 486 822 l 231 822 q 196 861 196 822 q 233 901 196 901 l 572 901 q 739 826 739 901 q 726 774 739 803 l 349 -75 z "},"K":{"ha":539,"x_min":26,"x_max":1017,"o":"m 797 207 q 633 58 761 124 q 432 0 519 0 q 392 10 414 0 q 344 79 344 31 q 358 136 344 104 l 475 397 q 478 411 478 406 q 442 432 478 432 q 429 431 435 432 l 239 0 l 26 0 l 371 774 q 374 783 374 778 q 358 810 374 797 q 328 822 342 822 l 88 822 q 53 861 53 822 q 90 901 53 901 l 428 901 q 596 826 596 901 q 582 774 596 803 l 472 526 q 489 525 479 525 q 546 557 532 525 l 643 774 q 722 866 668 831 q 833 901 776 901 l 994 901 q 1017 888 1017 901 q 987 845 1017 868 q 936 822 957 822 q 927 822 935 822 q 914 822 919 822 q 875 818 888 822 q 815 731 847 804 l 738 557 q 622 479 715 508 q 671 417 671 447 q 667 397 671 407 l 569 179 q 561 149 561 161 q 583 128 561 128 q 683 172 625 128 q 761 257 742 217 l 799 208 l 797 207 z "},"L":{"ha":729,"x_min":-21,"x_max":953,"o":"m 143 8 l 175 83 q 124 53 150 68 q 92 6 106 40 q 90 0 90 3 q 110 -14 90 -14 q 143 8 132 -14 m 800 778 q 779 799 800 799 q 683 750 733 799 q 738 733 728 733 q 793 758 776 733 q 800 778 800 768 m 953 163 q 804 39 858 69 q 638 -3 733 -3 q 506 40 581 -3 q 386 83 432 82 l 367 38 q 258 -74 335 -33 q 117 -108 192 -108 q 24 -87 63 -108 q -21 -21 -21 -64 q -11 24 -21 0 q 87 147 24 99 q 226 197 150 196 l 438 672 q 457 713 450 701 q 485 750 469 736 q 269 835 357 835 q 175 816 235 835 q 108 797 115 797 q 88 826 88 797 q 128 869 88 854 q 283 897 199 897 q 564 824 424 897 q 786 897 643 897 q 904 824 904 897 q 890 772 904 801 q 817 687 867 718 q 714 656 768 656 q 649 672 675 656 l 436 196 q 553 154 501 188 q 626 103 590 129 q 721 76 669 76 q 899 176 801 76 l 953 163 z "},"M":{"ha":1042,"x_min":67,"x_max":1342,"o":"m 1292 207 q 1136 64 1257 129 q 925 0 1022 0 q 860 24 889 0 q 832 82 832 47 q 840 118 832 100 l 1132 774 q 1139 797 1139 788 q 1117 817 1139 817 q 1008 765 1071 817 q 925 664 946 713 l 629 0 l 428 0 l 771 774 q 778 799 778 789 q 758 817 778 817 q 651 761 714 817 q 574 664 594 711 l 278 0 l 67 0 l 411 774 q 413 783 413 778 q 397 810 413 797 q 367 822 382 822 l 126 822 q 93 861 93 822 q 131 901 93 901 l 468 901 q 631 853 606 901 q 824 908 729 908 q 919 899 874 908 q 990 853 989 885 q 1168 908 1049 908 l 1183 908 q 1286 883 1239 908 q 1342 808 1342 854 q 1333 774 1342 792 l 1051 139 q 1050 132 1050 135 q 1063 122 1050 122 q 1170 167 1107 122 q 1254 257 1233 213 l 1292 207 z "},"N":{"ha":688,"x_min":67,"x_max":981,"o":"m 931 207 q 776 64 896 129 q 565 0 663 0 q 499 24 528 0 q 471 82 471 47 q 479 118 471 100 l 771 774 q 778 799 778 788 q 758 817 778 817 q 651 761 714 817 q 574 664 594 711 l 278 0 l 67 0 l 411 774 q 413 783 413 778 q 397 810 413 797 q 367 822 382 822 l 126 822 q 93 861 93 822 q 131 901 93 901 l 468 901 q 631 853 606 901 q 824 908 729 908 q 926 883 878 908 q 981 808 981 854 q 974 774 981 792 l 690 139 q 689 132 689 135 q 703 122 689 122 q 810 167 746 122 q 893 257 874 213 l 931 207 z "},"O":{"ha":663,"x_min":99,"x_max":1118,"o":"m 486 197 l 694 664 q 706 725 706 692 q 644 817 706 817 q 593 774 613 817 l 336 197 q 331 174 331 185 q 390 125 331 125 q 486 197 454 125 m 864 785 q 872 821 872 801 q 854 847 872 847 q 825 819 825 847 q 835 794 825 806 q 857 783 844 783 q 864 785 860 783 m 1114 767 q 904 681 1065 697 l 678 174 q 325 0 600 0 q 99 110 99 0 q 114 174 99 138 l 361 728 q 493 864 401 817 q 665 904 571 904 q 776 888 724 904 q 876 919 821 919 q 960 850 960 919 q 935 774 960 815 q 974 767 957 767 q 1072 806 1019 767 q 1085 810 1078 810 q 1107 800 1096 810 q 1118 779 1118 790 q 1114 767 1118 772 z "},"P":{"ha":656,"x_min":67,"x_max":981,"o":"m 597 379 l 763 750 q 768 778 768 765 q 713 824 768 824 q 613 750 644 824 l 385 239 q 597 379 565 308 m 818 425 q 617 235 760 294 q 363 189 507 189 l 278 0 l 67 0 l 411 774 q 413 783 413 778 q 397 810 413 797 q 367 822 382 822 l 265 822 q 232 861 232 822 q 269 901 232 901 l 468 901 q 625 861 596 901 q 794 906 683 906 q 914 885 863 906 q 981 807 981 858 q 971 767 981 789 l 818 425 z "},"Q":{"ha":663,"x_min":99,"x_max":1114,"o":"m 486 197 l 694 664 q 706 725 706 692 q 644 817 706 817 q 593 774 613 817 l 336 197 q 331 174 331 185 q 390 125 331 125 q 486 197 454 125 m 864 785 q 872 821 872 801 q 854 847 872 847 q 825 819 825 847 q 835 794 825 806 q 857 783 844 783 q 864 785 860 783 m 1114 767 q 904 681 1046 696 l 678 174 q 421 7 614 32 l 336 -186 l 201 -107 l 250 4 q 99 110 99 21 q 114 174 99 138 l 361 728 q 493 864 401 817 q 665 904 571 904 q 776 888 724 904 q 876 919 819 919 q 960 850 960 919 q 935 774 960 815 q 974 767 957 767 q 1072 806 1007 767 l 1114 767 z "},"R":{"ha":656,"x_min":67,"x_max":981,"o":"m 717 650 l 763 750 q 768 778 768 765 q 713 824 768 824 q 613 750 644 824 l 504 510 q 717 650 685 579 m 928 208 q 776 65 893 129 q 563 0 658 0 q 501 27 525 0 q 478 90 478 54 q 488 136 478 114 l 565 310 q 575 353 575 332 q 482 460 575 418 l 278 0 l 67 0 l 411 774 q 413 783 413 778 q 397 810 413 797 q 367 822 382 822 l 265 822 q 232 861 232 822 q 269 901 232 901 l 468 901 q 625 861 596 901 q 794 906 683 906 q 914 885 863 906 q 981 807 981 858 q 971 767 981 789 l 939 696 q 831 565 906 621 q 675 492 756 508 q 776 367 776 463 q 760 294 776 332 l 704 168 q 697 144 697 154 q 717 128 697 128 q 815 172 757 128 q 890 257 872 217 l 928 208 z "},"S":{"ha":558,"x_min":78,"x_max":922,"o":"m 482 272 q 461 388 482 289 q 332 321 376 357 q 249 206 281 279 q 239 163 239 185 q 258 106 239 129 q 307 83 276 83 q 397 114 351 83 q 463 188 443 144 q 482 272 482 231 m 819 778 q 799 799 819 799 q 703 750 753 799 q 757 733 747 733 q 813 758 796 733 q 819 778 819 768 m 294 -8 q 142 29 201 -8 q 78 144 78 71 q 100 236 78 186 q 346 471 172 399 q 438 494 401 494 q 428 572 428 539 q 457 672 428 628 q 504 750 469 701 q 438 800 471 775 q 364 835 389 835 q 290 816 338 835 q 240 797 243 797 q 221 828 221 797 q 246 864 221 851 q 393 897 318 897 q 499 874 449 897 q 583 824 540 849 q 806 897 663 897 q 922 824 922 897 q 910 772 922 801 q 837 687 886 718 q 733 656 788 656 q 668 672 694 656 q 638 604 638 633 q 654 556 638 582 q 682 515 668 536 q 744 501 710 501 q 786 508 767 501 l 756 440 q 697 425 736 426 q 710 368 710 399 q 674 242 710 322 l 653 193 q 494 39 607 94 q 294 -8 399 -8 z "},"T":{"ha":482,"x_min":165,"x_max":1058,"o":"m 1058 901 q 990 824 1007 846 q 942 739 957 781 l 854 739 l 857 746 q 901 822 882 801 l 732 822 q 718 774 731 801 l 386 0 l 165 0 l 507 774 q 508 783 508 778 q 493 810 508 797 q 463 822 478 822 l 222 822 q 189 861 189 822 q 226 901 189 901 l 1058 901 z "},"U":{"ha":688,"x_min":93,"x_max":1031,"o":"m 931 207 q 776 64 896 129 q 565 0 663 0 q 485 82 485 0 q 488 108 485 94 q 215 0 376 0 q 121 85 121 0 q 143 174 121 124 l 411 774 q 413 783 413 778 q 397 810 413 797 q 367 822 382 822 l 126 822 q 93 861 93 822 q 131 901 93 901 l 468 901 q 635 826 635 901 q 622 774 635 803 l 333 125 q 329 110 329 117 q 344 97 329 97 q 390 111 361 97 q 542 257 501 165 l 829 901 l 1031 901 l 690 139 q 689 132 689 135 q 703 122 689 122 q 810 167 746 122 q 893 257 874 213 l 931 207 z "},"V":{"ha":688,"x_min":93,"x_max":1031,"o":"m 872 544 q 601 189 788 357 q 215 0 393 0 q 121 85 121 0 q 143 174 121 124 l 411 774 q 413 783 413 778 q 397 810 413 797 q 367 822 382 822 l 126 822 q 93 861 93 822 q 131 901 93 901 l 468 901 q 635 826 635 901 q 622 774 635 803 l 333 125 q 329 110 329 117 q 344 97 329 97 q 392 113 361 97 q 542 257 501 165 l 829 901 l 1031 901 l 872 544 z "},"W":{"ha":1046,"x_min":88,"x_max":1390,"o":"m 1232 544 q 963 189 1149 357 q 575 0 753 0 q 481 85 481 0 q 482 96 481 89 q 215 0 338 0 q 121 85 121 0 q 143 174 121 124 l 411 774 q 413 783 413 778 q 397 810 413 797 q 367 822 382 822 l 122 822 q 88 861 88 822 q 125 901 88 901 l 468 901 q 635 826 635 901 q 622 774 635 803 l 333 125 q 331 111 331 117 q 347 97 331 97 q 452 145 392 97 q 532 238 513 193 l 828 901 l 1031 901 l 685 125 q 681 111 681 117 q 697 97 681 97 q 813 153 744 97 q 901 257 881 208 l 1189 901 l 1390 901 l 1232 544 z "},"X":{"ha":688,"x_min":76,"x_max":1031,"o":"m 947 207 q 793 64 914 131 q 582 0 679 0 q 512 30 543 0 q 481 100 481 60 q 488 136 481 118 l 633 463 q 638 478 638 471 q 622 490 638 490 q 576 475 606 490 q 425 331 465 422 l 278 1 l 76 1 l 121 99 q 236 286 161 192 q 401 451 315 389 q 322 533 322 458 q 344 624 322 574 l 411 774 q 413 783 413 778 q 397 810 413 797 q 367 822 382 822 l 126 822 q 93 861 93 822 q 131 901 93 901 l 468 901 q 635 826 635 901 q 622 774 635 803 l 533 575 q 531 560 531 567 q 546 547 531 547 q 592 563 563 547 q 742 707 701 615 l 829 901 l 1031 901 l 1017 871 q 757 575 946 711 q 844 497 844 571 q 824 414 844 461 l 714 168 q 708 146 708 154 q 729 128 708 128 q 831 172 771 128 q 911 257 892 217 l 949 208 l 947 207 z "},"Y":{"ha":688,"x_min":93,"x_max":1039,"o":"m 381 -104 q 454 64 404 -47 q 351 -56 399 50 l 329 -107 q 328 -112 328 -110 q 349 -126 328 -126 q 381 -104 371 -126 m 604 -75 q 497 -192 571 -150 q 353 -231 431 -231 q 260 -211 301 -231 q 210 -146 210 -187 q 218 -112 210 -131 l 243 -56 q 514 197 324 125 l 524 217 q 275 136 389 136 q 182 219 182 136 q 204 308 182 258 l 411 774 q 413 783 413 778 q 397 810 413 797 q 367 822 382 822 l 126 822 q 93 861 93 822 q 131 901 93 901 l 468 901 q 635 826 635 901 q 622 774 635 803 l 393 261 q 390 246 390 251 q 406 233 390 233 q 509 284 443 233 q 592 372 575 335 l 828 901 l 1039 901 l 604 -75 z "},"Z":{"ha":814,"x_min":35,"x_max":1188,"o":"m 299 183 q 200 165 257 183 q 128 111 128 143 q 165 93 128 93 q 299 183 218 93 m 1042 163 q 894 39 947 69 q 728 -3 822 -3 q 626 35 674 -3 q 554 104 590 69 q 478 161 514 142 q 319 44 408 89 q 150 0 231 0 q 35 78 35 0 q 46 125 35 99 q 394 299 119 292 q 893 821 640 553 q 894 826 894 824 q 869 838 894 838 l 547 838 q 526 863 526 838 q 532 888 526 875 q 546 900 538 900 l 1169 900 q 1188 889 1188 900 q 1171 861 1188 876 l 579 263 q 667 204 626 244 q 728 126 697 165 q 810 76 772 76 q 989 176 892 76 l 1042 163 z "},"\\":{"ha":508,"x_min":404,"x_max":539,"o":"m 524 788 l 539 113 l 418 113 l 404 788 l 524 788 z "},"_":{"ha":603,"x_min":-65,"x_max":499,"o":"m 454 -225 l -65 -225 l -19 -122 l 499 -122 l 454 -225 z "},"`":{"ha":707,"x_min":743,"x_max":940,"o":"m 940 999 l 826 999 l 743 1151 l 894 1151 l 940 999 z "},"a":{"ha":543,"x_min":104,"x_max":782,"o":"m 342 136 l 463 408 q 465 417 465 414 q 442 433 465 433 q 400 407 411 433 l 282 143 q 272 103 272 121 q 289 83 272 83 q 342 136 318 83 m 782 208 q 626 64 746 129 q 415 0 513 0 q 364 42 371 0 q 251 -3 314 -3 q 104 97 104 -3 q 142 235 104 150 l 161 278 q 274 439 204 375 q 449 515 357 515 q 553 469 517 515 l 565 497 l 693 497 l 632 360 q 547 168 604 296 q 542 146 542 156 q 563 128 542 128 q 665 172 604 128 q 744 257 725 217 l 782 208 z "},"b":{"ha":525,"x_min":104,"x_max":817,"o":"m 361 136 l 483 408 q 485 417 485 414 q 461 433 485 433 q 421 407 432 433 l 299 136 q 290 99 290 114 q 306 79 290 79 q 361 136 336 79 m 817 263 q 792 232 808 253 q 549 82 665 82 q 496 111 506 82 q 378 26 453 58 q 251 -3 311 -3 q 104 111 104 -3 q 128 203 104 151 l 439 901 l 640 901 l 457 489 q 540 513 500 513 q 608 485 583 513 q 633 415 633 458 q 572 225 633 363 q 567 203 567 213 q 597 179 567 179 q 694 217 644 179 q 764 303 743 256 l 817 263 z "},"c":{"ha":453,"x_min":88,"x_max":697,"o":"m 697 207 q 539 61 663 128 q 343 0 425 0 l 238 0 q 88 99 88 0 q 126 235 88 150 l 171 335 q 261 460 204 410 q 399 515 325 515 l 536 515 q 625 446 625 515 q 621 410 625 431 l 414 335 l 447 408 q 449 417 449 414 q 425 433 449 433 q 385 407 396 433 l 267 143 q 257 104 257 121 q 274 83 257 83 l 314 83 q 568 163 447 83 q 661 257 639 210 l 697 208 l 697 207 z "},"d":{"ha":542,"x_min":117,"x_max":890,"o":"m 339 117 l 474 419 q 453 428 468 428 q 411 403 422 428 l 289 126 q 281 96 281 108 q 296 79 281 79 q 339 117 322 79 m 793 203 q 639 60 758 126 q 428 -3 525 -3 q 364 36 367 -3 q 264 -6 310 -6 q 117 94 117 -6 q 154 231 117 146 l 174 275 q 286 436 217 372 q 461 511 368 511 q 511 503 488 511 l 689 901 l 890 901 l 554 146 q 553 140 553 143 q 571 125 553 125 q 667 165 607 125 q 757 254 699 188 l 793 204 l 793 203 z "},"e":{"ha":444,"x_min":88,"x_max":697,"o":"m 396 294 l 447 408 q 449 417 449 414 q 425 433 449 433 q 385 407 396 433 l 333 294 l 396 294 m 697 207 q 539 61 663 128 q 343 0 425 0 l 238 0 q 88 99 88 0 q 126 235 88 150 l 171 335 q 261 460 204 410 q 399 515 325 515 l 536 515 q 625 447 625 515 q 576 296 625 406 q 439 217 542 217 l 300 217 l 267 143 q 257 104 257 121 q 274 83 257 83 l 314 83 q 568 163 449 83 q 661 257 639 211 l 697 208 l 697 207 z "},"f":{"ha":415,"x_min":-11,"x_max":758,"o":"m 242 -107 l 297 17 q 318 100 318 63 q 300 136 318 131 q 193 -107 264 56 q 190 -117 190 -112 q 204 -128 190 -128 q 242 -107 233 -128 m 482 431 l 640 786 q 642 792 642 789 q 619 807 642 807 q 590 786 600 807 q 379 311 521 628 q 482 431 435 326 m 579 139 q 511 93 554 111 q 436 75 468 75 q 406 79 419 75 q 418 54 418 65 q 407 17 418 44 l 349 -112 q 240 -199 325 -167 q 110 -225 171 -225 q -11 -140 -11 -225 q 4 -75 -11 -111 l 374 754 q 475 868 407 828 q 613 904 538 904 q 707 885 664 904 q 758 821 758 861 q 751 792 758 807 l 590 431 q 519 315 564 371 q 411 224 464 246 q 476 163 422 163 q 542 189 508 163 l 579 139 z "},"g":{"ha":517,"x_min":25,"x_max":765,"o":"m 210 -107 q 272 33 229 -60 q 200 -31 224 0 q 160 -107 183 -53 q 158 -112 158 -110 q 179 -128 158 -128 q 210 -107 200 -128 m 356 203 l 447 408 q 449 417 449 414 q 425 433 449 433 q 385 407 396 433 l 292 199 q 282 163 282 178 q 297 144 282 144 q 356 203 329 144 m 765 208 q 655 90 739 149 q 511 32 571 32 q 475 40 490 32 l 425 -75 q 313 -194 392 -151 q 163 -233 242 -233 q 65 -209 106 -233 q 25 -139 25 -185 q 38 -86 25 -115 q 206 44 82 14 q 115 156 115 61 q 146 278 115 210 q 258 439 189 375 q 432 515 340 515 q 538 469 500 515 l 550 497 l 678 497 l 540 190 q 526 146 526 161 q 547 128 526 128 q 649 172 588 128 q 728 257 710 217 l 765 208 z "},"h":{"ha":547,"x_min":32,"x_max":793,"o":"m 793 207 q 639 64 758 131 q 428 0 525 0 q 383 11 406 0 q 340 79 340 33 q 353 136 340 104 l 475 408 q 478 422 478 417 q 460 438 478 438 q 414 407 428 438 l 233 0 l 32 0 l 433 901 l 635 901 l 457 504 q 557 533 511 533 q 654 432 654 533 q 629 325 654 382 l 560 168 q 553 146 553 154 q 575 128 553 128 q 676 172 615 128 q 756 257 738 217 l 793 208 l 793 207 z "},"i":{"ha":303,"x_min":100,"x_max":569,"o":"m 549 207 q 394 64 515 131 q 183 0 281 0 q 124 27 147 0 q 100 90 100 54 q 110 136 100 114 l 292 543 l 444 458 l 315 168 q 310 146 310 154 q 331 128 310 128 q 433 172 372 128 q 513 257 493 217 l 550 208 l 549 207 m 564 692 q 499 632 547 654 q 418 614 458 614 q 361 628 386 614 q 336 667 336 642 q 342 692 336 678 q 407 750 358 728 q 488 769 447 769 q 544 756 519 769 q 569 715 569 742 q 564 692 569 704 z "},"j":{"ha":357,"x_min":-104,"x_max":636,"o":"m 58 -107 q 115 24 76 -64 q 49 -36 90 17 q 7 -112 7 -89 q 28 -128 7 -128 q 58 -107 49 -128 m 615 207 q 482 76 585 138 q 310 7 392 22 l 274 -75 q 171 -189 242 -147 q 31 -228 106 -228 q -62 -206 -25 -228 q -104 -135 -104 -179 q -92 -85 -104 -111 q 11 63 -54 -1 q 167 139 90 139 q 178 139 172 139 l 357 543 l 511 458 l 382 168 q 376 146 376 154 q 397 128 376 128 q 499 172 439 128 q 579 257 560 217 l 615 208 l 615 207 m 631 692 q 565 632 614 654 q 485 614 524 614 q 429 626 453 614 q 401 667 401 642 q 407 692 401 678 q 472 750 424 728 q 554 769 514 769 q 610 756 585 769 q 636 715 636 742 q 631 692 636 704 z "},"k":{"ha":539,"x_min":36,"x_max":799,"o":"m 529 417 q 531 424 531 421 q 513 438 531 438 q 397 357 467 438 q 474 382 410 365 q 529 417 519 394 m 797 207 q 643 64 764 131 q 432 0 529 0 q 389 11 411 0 q 344 78 344 33 q 376 178 344 114 q 407 254 407 242 q 389 269 407 269 q 344 239 358 269 l 239 0 l 36 0 l 438 901 l 639 901 l 450 476 q 604 538 508 538 q 685 482 685 538 q 672 431 685 460 q 563 338 646 372 q 599 285 599 328 q 569 179 599 244 q 561 149 561 161 q 583 128 561 128 q 683 172 625 128 q 761 257 742 217 l 799 208 l 797 207 z "},"l":{"ha":396,"x_min":107,"x_max":758,"o":"m 551 589 l 640 786 q 642 792 640 789 q 621 806 642 806 q 589 783 599 806 q 449 469 543 679 q 551 589 504 483 m 608 207 q 458 57 569 119 q 265 0 357 0 q 156 35 200 0 q 107 135 107 72 q 115 175 107 156 l 374 754 q 475 868 407 828 q 613 904 538 904 q 707 885 664 904 q 758 821 758 861 q 751 792 758 807 l 661 589 q 389 335 581 408 l 317 172 q 310 147 310 158 q 353 117 310 117 q 478 159 410 117 q 571 257 547 201 l 608 207 z "},"m":{"ha":819,"x_min":31,"x_max":1054,"o":"m 1054 207 q 899 64 1019 131 q 689 0 785 0 q 649 10 669 0 q 601 79 601 31 q 614 136 601 104 l 736 408 q 739 422 739 417 q 721 438 739 438 q 675 407 689 438 l 494 0 l 293 0 l 475 408 q 478 422 478 417 q 458 438 478 438 q 414 407 428 438 l 233 0 l 31 0 l 272 543 l 400 475 q 557 533 457 533 q 650 469 629 533 q 818 533 719 533 q 915 432 915 533 q 890 325 915 382 l 821 168 q 814 146 814 154 q 836 128 814 128 q 938 172 876 128 q 1017 257 999 217 l 1054 208 l 1054 207 z "},"n":{"ha":554,"x_min":36,"x_max":799,"o":"m 797 207 q 643 64 764 131 q 432 0 529 0 q 390 11 413 0 q 344 79 344 32 q 358 136 344 104 l 481 408 q 483 422 483 417 q 464 438 483 438 q 419 407 433 438 l 239 0 l 36 0 l 278 543 l 406 475 q 563 533 463 533 q 660 432 660 533 q 635 325 660 382 l 564 168 q 558 146 558 154 q 579 128 558 128 q 681 172 621 128 q 761 257 742 217 l 799 208 l 797 207 z "},"o":{"ha":490,"x_min":90,"x_max":815,"o":"m 338 118 l 446 363 q 421 410 421 369 q 425 432 421 424 q 393 396 403 419 l 269 118 q 264 94 264 106 q 283 74 264 74 q 338 118 317 74 m 565 418 q 574 456 574 436 q 556 482 574 482 q 526 454 526 482 q 536 428 526 440 q 558 417 546 417 q 565 418 563 417 m 815 400 q 607 315 747 329 q 574 239 596 290 q 329 0 467 0 l 172 0 q 90 76 90 0 q 124 201 90 125 l 179 324 q 272 453 213 399 q 413 515 340 515 l 469 515 q 578 554 514 554 q 661 485 661 554 q 636 407 661 450 q 675 401 660 401 q 774 440 708 401 l 815 400 z "},"p":{"ha":511,"x_min":-62,"x_max":817,"o":"m 361 136 l 483 408 q 485 417 485 414 q 461 433 485 433 q 421 407 432 433 l 299 136 q 290 99 290 114 q 306 79 290 79 q 361 136 336 79 m 817 263 q 792 233 808 253 q 549 82 667 82 q 496 111 506 82 q 403 33 456 64 q 297 1 346 1 q 242 14 267 1 l 136 -224 l -62 -224 l 258 497 l 385 497 l 367 456 q 511 503 422 503 q 633 417 633 503 q 572 225 633 363 q 567 203 567 213 q 597 179 567 179 q 694 217 644 179 q 764 303 743 256 l 817 263 z "},"q":{"ha":511,"x_min":88,"x_max":765,"o":"m 325 136 l 447 408 q 449 417 449 414 q 425 433 449 433 q 385 407 396 433 l 267 143 q 257 103 257 121 q 274 83 257 83 q 325 136 301 83 m 765 207 q 653 90 739 149 q 511 31 568 31 q 475 40 489 31 l 358 -219 l 168 -219 l 267 1 q 236 -3 250 -3 q 88 97 88 -3 q 126 235 88 150 l 146 278 q 258 439 189 375 q 432 515 340 515 q 538 469 500 515 l 550 497 l 678 497 l 532 168 q 525 146 525 154 q 547 128 525 128 q 649 172 588 128 q 728 257 710 217 l 765 208 l 765 207 z "},"r":{"ha":538,"x_min":74,"x_max":778,"o":"m 778 207 q 624 64 743 131 q 413 0 510 0 q 325 79 325 0 q 338 135 325 106 l 435 351 q 436 358 436 354 q 425 376 436 368 q 403 383 414 383 q 371 349 386 383 q 151 118 304 200 q 74 90 106 93 l 279 550 l 576 382 q 608 322 608 364 q 604 306 608 313 l 543 167 q 538 144 538 154 q 558 126 538 126 q 660 171 600 126 q 740 257 721 215 l 778 207 z "},"s":{"ha":525,"x_min":-7,"x_max":788,"o":"m 404 192 q 421 271 421 229 q 404 335 421 313 q 289 204 365 292 q 283 161 283 182 q 306 121 283 121 q 404 192 372 121 m 513 579 q 503 585 513 585 q 478 569 485 585 q 474 549 474 560 q 475 532 474 542 q 513 579 513 571 m 788 204 q 594 47 722 103 q 372 0 485 0 q 189 131 189 0 q 189 135 189 133 q -7 21 140 79 l -3 90 q 374 424 249 250 q 369 454 369 438 q 392 549 369 499 q 524 657 440 657 q 594 613 594 657 q 585 571 594 594 q 508 458 567 533 q 608 267 608 335 q 485 90 608 178 q 633 142 550 90 q 753 264 711 189 l 788 204 z "},"t":{"ha":329,"x_min":97,"x_max":651,"o":"m 551 207 q 397 64 517 129 q 186 0 283 0 q 121 24 144 0 q 97 83 97 47 q 110 139 97 110 l 242 435 l 189 435 l 219 501 l 271 501 l 450 901 l 651 901 l 474 501 l 529 501 l 499 435 l 443 435 l 311 139 q 310 132 310 135 q 324 122 310 122 q 431 167 367 122 q 514 257 494 213 l 551 207 z "},"u":{"ha":528,"x_min":103,"x_max":781,"o":"m 781 207 q 626 64 746 131 q 415 0 513 0 q 364 42 371 0 q 251 -3 313 -3 q 103 97 103 -3 q 142 235 103 149 l 258 497 l 440 497 l 282 143 q 272 103 272 121 q 289 83 272 83 q 340 136 318 83 l 521 543 l 675 458 l 547 168 q 542 146 542 156 q 563 128 542 128 q 664 172 603 128 q 743 257 725 217 l 781 208 l 781 207 z "},"v":{"ha":483,"x_min":100,"x_max":674,"o":"m 574 235 q 439 71 532 140 q 249 -3 342 -3 q 100 97 100 -3 q 139 235 100 149 l 256 497 l 438 497 l 279 143 q 269 103 269 121 q 286 83 269 83 q 338 136 315 83 l 519 543 l 674 458 l 574 235 z "},"w":{"ha":721,"x_min":99,"x_max":1058,"o":"m 810 418 q 817 456 817 436 q 799 482 817 482 q 769 454 769 482 q 779 428 769 440 q 801 417 789 417 q 810 418 806 417 m 1058 400 q 850 315 990 331 l 790 181 q 564 11 735 57 q 489 -3 517 -3 q 367 29 401 -3 q 247 -3 306 -3 q 99 97 99 -3 q 136 235 99 149 l 274 543 l 418 458 l 276 143 q 267 103 267 121 q 283 83 267 83 q 336 136 313 83 l 468 431 l 610 346 l 519 143 q 510 103 510 121 q 526 83 510 83 q 578 136 554 83 l 681 367 q 665 401 665 376 q 682 464 665 428 q 817 556 722 556 q 906 485 906 556 q 879 407 906 450 q 919 401 904 401 q 1017 440 951 401 l 1058 400 z "},"x":{"ha":354,"x_min":-4,"x_max":588,"o":"m 588 207 q 432 64 553 129 q 221 0 318 0 q 133 78 135 0 l 83 46 l -4 46 l 167 179 l 263 393 q 269 419 269 408 q 233 444 269 444 q 115 364 185 444 q 196 474 147 431 q 317 524 254 524 q 399 490 369 524 q 428 406 428 457 q 428 397 428 401 l 476 435 l 564 435 l 418 317 q 353 167 417 310 q 346 143 346 154 q 369 124 346 124 q 471 169 411 124 q 550 257 531 214 l 588 207 z "},"y":{"ha":514,"x_min":25,"x_max":765,"o":"m 210 -107 q 272 33 229 -60 q 200 -31 224 0 q 160 -107 183 -53 q 158 -112 158 -110 q 179 -128 158 -128 q 210 -107 200 -128 m 765 207 q 632 76 735 138 q 461 7 543 22 l 425 -75 q 313 -194 392 -151 q 163 -233 242 -233 q 65 -209 106 -233 q 25 -139 25 -185 q 38 -86 25 -114 q 206 44 82 14 q 110 146 110 63 q 146 278 110 197 l 264 543 l 407 458 l 292 199 q 282 163 282 178 q 297 144 282 144 q 356 203 329 144 l 517 565 l 661 458 l 532 168 q 525 146 525 154 q 547 128 525 128 q 649 172 588 128 q 728 257 710 217 l 765 208 l 765 207 z "},"z":{"ha":460,"x_min":74,"x_max":697,"o":"m 697 208 q 539 63 663 128 q 343 0 426 0 l 238 0 q 133 10 165 0 q 74 79 74 26 q 99 169 74 115 q 210 282 133 249 q 341 318 274 299 q 431 386 408 338 q 436 408 436 399 q 399 439 436 439 l 281 439 l 253 515 l 536 515 q 609 494 581 515 q 638 438 638 474 q 626 390 638 417 q 521 288 597 325 q 383 240 501 279 q 260 143 289 208 q 254 119 254 131 q 314 83 254 83 q 503 126 400 83 q 661 257 625 179 l 697 208 z "},"~":{"ha":183,"x_min":424,"x_max":583,"o":"m 583 932 l 538 899 l 490 899 l 482 918 l 460 899 l 424 899 l 469 932 l 510 932 l 519 913 l 547 932 l 583 932 z "},"¡":{"ha":403,"x_min":-133,"x_max":596,"o":"m 596 504 q 574 456 596 481 q 444 403 526 403 q 389 415 413 403 q 361 456 361 431 q 367 481 361 468 q 429 538 383 515 q 514 558 471 558 q 570 544 544 558 q 596 504 596 531 m 276 -215 q 7 -343 218 -343 l -110 -343 q -124 -322 -133 -343 q -89 -283 -115 -301 q -42 -264 -62 -264 l -24 -264 q 26 -247 -4 -264 q 64 -215 57 -231 l 283 276 l 532 360 l 276 -215 z "},"¨":{"ha":807,"x_min":704,"x_max":1013,"o":"m 856 1081 q 813 1036 843 1053 q 756 1019 783 1019 q 704 1058 704 1019 q 710 1081 704 1068 q 751 1125 722 1108 q 810 1142 781 1142 q 860 1103 860 1142 q 856 1081 860 1092 m 1007 1081 q 966 1036 996 1053 q 908 1019 936 1019 q 857 1058 857 1019 q 863 1081 857 1068 q 904 1124 874 1107 q 963 1142 935 1142 q 1013 1103 1013 1142 q 1007 1081 1013 1092 z "},"´":{"ha":707,"x_min":699,"x_max":1031,"o":"m 1031 1151 l 813 999 l 699 999 l 879 1151 l 1031 1151 z "},"¸":{"ha":714,"x_min":154,"x_max":433,"o":"m 415 -114 q 329 -204 392 -169 q 215 -236 272 -236 q 154 -232 189 -236 l 167 -203 q 199 -206 189 -206 q 265 -184 231 -206 q 314 -131 300 -162 q 318 -111 318 -121 q 278 -81 318 -81 q 264 -82 272 -81 l 392 39 l 433 39 l 375 -15 q 426 -72 426 -29 q 415 -114 426 -90 z "},"¿":{"ha":672,"x_min":-126,"x_max":668,"o":"m 440 500 q 506 558 457 536 q 586 578 546 578 q 643 564 618 578 q 668 524 668 550 q 663 500 668 513 q 597 440 646 463 q 517 422 556 422 q 460 436 485 422 q 435 475 435 450 q 440 500 435 488 m -85 -110 q 174 111 -29 14 q 250 144 211 128 q 310 199 297 171 l 392 381 l 565 296 l 522 199 q 467 126 501 151 q 384 85 442 107 q 240 8 326 64 q 122 -97 140 -57 l 92 -165 q 85 -194 85 -182 q 154 -239 85 -239 q 249 -219 185 -239 q 343 -199 313 -199 q 450 -251 400 -199 l 417 -325 q 321 -287 364 -287 q 228 -311 306 -287 q 129 -325 178 -325 q -25 -308 40 -325 q -126 -221 -126 -282 q -117 -182 -126 -203 l -85 -110 z "},"À":{"ha":663,"x_min":92,"x_max":1001,"o":"m 513 257 l 694 664 q 706 725 706 692 q 644 817 706 817 q 593 774 613 817 l 304 125 q 300 110 300 117 q 315 97 300 97 q 364 113 333 97 q 513 257 474 167 m 901 207 q 747 64 867 131 q 536 0 633 0 q 456 82 456 0 q 458 108 456 94 q 186 0 347 0 q 92 85 92 0 q 114 174 92 124 l 361 728 q 493 864 400 815 q 667 907 575 907 q 828 839 788 907 l 856 901 l 1001 901 l 661 139 q 660 132 660 135 q 674 122 660 122 q 780 167 717 122 q 864 257 843 213 l 901 207 m 982 999 l 868 999 l 785 1151 l 936 1151 l 982 999 z "},"Á":{"ha":663,"x_min":92,"x_max":1001,"o":"m 513 257 l 694 664 q 706 725 706 692 q 644 817 706 817 q 593 774 613 817 l 304 125 q 300 110 300 117 q 315 97 300 97 q 364 113 333 97 q 513 257 474 167 m 901 207 q 747 64 867 131 q 536 0 633 0 q 456 82 456 0 q 458 108 456 94 q 186 0 347 0 q 92 85 92 0 q 114 174 92 124 l 361 728 q 493 864 400 815 q 667 907 575 907 q 828 839 788 907 l 856 901 l 1001 901 l 661 139 q 660 132 660 135 q 674 122 660 122 q 780 167 717 122 q 864 257 843 213 l 901 207 m 990 1151 l 772 999 l 658 999 l 839 1151 l 990 1151 z "},"Â":{"ha":663,"x_min":92,"x_max":1001,"o":"m 513 257 l 694 664 q 706 725 706 692 q 644 817 706 817 q 593 774 613 817 l 304 125 q 300 110 300 117 q 315 97 300 97 q 364 113 333 97 q 513 257 474 167 m 901 207 q 747 64 867 131 q 536 0 633 0 q 456 82 456 0 q 458 108 456 94 q 186 0 347 0 q 92 85 92 0 q 114 174 92 124 l 361 728 q 493 864 400 815 q 667 907 575 907 q 828 839 788 907 l 856 901 l 1001 901 l 661 139 q 660 132 660 135 q 674 122 660 122 q 780 167 717 122 q 864 257 843 213 l 901 207 m 943 1006 l 828 1006 l 792 1096 l 678 1006 l 563 1006 l 725 1147 l 906 1147 l 943 1006 z "},"Ã":{"ha":663,"x_min":92,"x_max":1001,"o":"m 513 257 l 694 664 q 706 725 706 692 q 644 817 706 817 q 593 774 613 817 l 304 125 q 300 110 300 117 q 315 97 300 97 q 364 113 333 97 q 513 257 474 167 m 901 207 q 747 64 867 131 q 536 0 633 0 q 456 82 456 0 q 458 108 456 94 q 186 0 347 0 q 92 85 92 0 q 114 174 92 124 l 361 728 q 493 864 400 815 q 667 907 575 907 q 828 839 788 907 l 856 901 l 1001 901 l 661 139 q 660 132 660 135 q 674 122 660 122 q 780 167 717 122 q 864 257 843 213 l 901 207 m 996 1154 q 861 1053 951 1053 q 787 1080 826 1053 q 729 1107 747 1107 q 661 1056 697 1107 l 646 1056 q 781 1154 693 1154 q 853 1128 814 1154 q 913 1101 893 1101 q 982 1154 947 1101 l 996 1154 z "},"Ä":{"ha":663,"x_min":92,"x_max":1001,"o":"m 513 257 l 694 664 q 706 725 706 692 q 644 817 706 817 q 593 774 613 817 l 304 125 q 300 110 300 117 q 315 97 300 97 q 364 113 333 97 q 513 257 474 167 m 901 207 q 747 64 867 131 q 536 0 633 0 q 456 82 456 0 q 458 108 456 94 q 186 0 347 0 q 92 85 92 0 q 114 174 92 124 l 361 728 q 493 864 400 815 q 667 907 575 907 q 828 839 788 907 l 856 901 l 1001 901 l 661 139 q 660 132 660 135 q 674 122 660 122 q 780 167 717 122 q 864 257 843 213 l 901 207 m 788 1081 q 745 1036 775 1053 q 688 1019 715 1019 q 636 1058 636 1019 q 642 1081 636 1068 q 683 1125 654 1108 q 742 1142 713 1142 q 792 1103 792 1142 q 788 1081 792 1092 m 939 1081 q 898 1036 928 1053 q 840 1019 868 1019 q 789 1058 789 1019 q 794 1081 789 1068 q 836 1124 806 1107 q 894 1142 867 1142 q 944 1103 944 1142 q 939 1081 944 1092 z "},"Å":{"ha":663,"x_min":92,"x_max":1001,"o":"m 513 257 l 694 664 q 706 725 706 692 q 644 817 706 817 q 593 774 613 817 l 304 125 q 300 110 300 117 q 315 97 300 97 q 364 113 333 97 q 513 257 474 167 m 901 207 q 747 64 867 131 q 536 0 633 0 q 456 82 456 0 q 458 108 456 94 q 186 0 347 0 q 92 85 92 0 q 114 174 92 124 l 361 728 q 493 864 400 815 q 667 907 575 907 q 828 839 788 907 l 856 901 l 1001 901 l 661 139 q 660 132 660 135 q 674 122 660 122 q 780 167 717 122 q 864 257 843 213 l 901 207 m 899 1065 q 903 1082 903 1074 q 836 1121 903 1121 q 775 1108 807 1121 q 725 1065 738 1093 q 721 1049 721 1057 q 788 1010 721 1010 q 849 1024 817 1010 q 899 1065 886 1039 m 949 1065 q 869 999 929 1024 q 772 978 821 978 q 706 993 735 978 q 669 1040 669 1010 q 676 1065 669 1051 q 756 1133 694 1108 q 850 1153 803 1153 q 918 1139 889 1153 q 954 1092 954 1121 q 949 1065 954 1079 z "},"Ç":{"ha":500,"x_min":100,"x_max":871,"o":"m 739 207 q 581 61 704 128 q 385 0 467 0 l 279 0 q 113 110 113 0 q 146 235 113 160 l 350 694 q 611 897 440 897 l 783 897 q 871 829 871 897 q 867 792 871 813 l 660 717 l 693 792 q 694 797 694 794 q 654 815 694 815 q 597 790 608 815 l 308 143 q 297 104 297 115 q 342 83 297 83 q 611 163 490 83 q 703 257 682 211 l 740 208 l 739 207 m 361 -114 q 275 -204 338 -169 q 161 -236 218 -236 q 100 -232 135 -236 l 113 -203 q 144 -206 135 -206 q 211 -184 176 -206 q 260 -131 246 -162 q 264 -111 264 -121 q 224 -81 264 -81 q 210 -82 218 -81 l 338 39 l 379 39 l 321 -15 q 372 -72 372 -29 q 361 -114 372 -90 z "},"È":{"ha":506,"x_min":93,"x_max":883,"o":"m 754 207 q 596 61 719 128 q 400 0 482 0 l 294 0 q 128 110 128 0 q 161 235 128 160 l 188 294 q 297 422 219 367 q 449 492 368 474 q 373 533 404 501 q 342 607 342 564 q 385 738 343 644 q 406 781 394 761 q 367 822 382 822 l 126 822 q 93 861 93 822 q 131 901 93 901 l 468 901 q 543 879 517 901 q 721 908 626 908 q 883 817 883 908 q 881 792 883 806 l 674 717 l 707 792 q 708 797 708 794 q 671 818 708 818 q 599 764 622 818 l 547 650 q 540 621 540 635 q 635 510 540 564 l 613 460 q 396 310 438 404 l 321 143 q 310 104 310 117 q 356 82 310 82 q 553 124 449 82 q 717 257 681 175 l 754 208 l 754 207 m 844 999 l 731 999 l 647 1151 l 799 1151 l 844 999 z "},"É":{"ha":506,"x_min":93,"x_max":949,"o":"m 754 207 q 596 61 719 128 q 400 0 482 0 l 294 0 q 128 110 128 0 q 161 235 128 160 l 188 294 q 297 422 219 367 q 449 492 368 474 q 373 533 404 501 q 342 607 342 564 q 385 738 343 644 q 406 781 394 761 q 367 822 382 822 l 126 822 q 93 861 93 822 q 131 901 93 901 l 468 901 q 543 879 517 901 q 721 908 626 908 q 883 817 883 908 q 881 792 883 806 l 674 717 l 707 792 q 708 797 708 794 q 671 818 708 818 q 599 764 622 818 l 547 650 q 540 621 540 635 q 635 510 540 564 l 613 460 q 396 310 438 404 l 321 143 q 310 104 310 117 q 356 82 310 82 q 553 124 449 82 q 717 257 681 175 l 754 208 l 754 207 m 949 1151 l 731 999 l 617 999 l 797 1151 l 949 1151 z "},"Ê":{"ha":506,"x_min":93,"x_max":943,"o":"m 754 207 q 596 61 719 128 q 400 0 482 0 l 294 0 q 128 110 128 0 q 161 235 128 160 l 188 294 q 297 422 219 367 q 449 492 368 474 q 373 533 404 501 q 342 607 342 564 q 385 738 343 644 q 406 781 394 761 q 367 822 382 822 l 126 822 q 93 861 93 822 q 131 901 93 901 l 468 901 q 543 879 517 901 q 721 908 626 908 q 883 817 883 908 q 881 792 883 806 l 674 717 l 707 792 q 708 797 708 794 q 671 818 708 818 q 599 764 622 818 l 547 650 q 540 621 540 635 q 635 510 540 564 l 613 460 q 396 310 438 404 l 321 143 q 310 104 310 117 q 356 82 310 82 q 553 124 449 82 q 717 257 681 175 l 754 208 l 754 207 m 943 1006 l 828 1006 l 792 1096 l 678 1006 l 563 1006 l 725 1147 l 906 1147 l 943 1006 z "},"Ë":{"ha":506,"x_min":93,"x_max":944,"o":"m 754 207 q 596 61 719 128 q 400 0 482 0 l 294 0 q 128 110 128 0 q 161 235 128 160 l 188 294 q 297 422 219 367 q 449 492 368 474 q 373 533 404 501 q 342 607 342 564 q 385 738 343 644 q 406 781 394 761 q 367 822 382 822 l 126 822 q 93 861 93 822 q 131 901 93 901 l 468 901 q 543 879 517 901 q 721 908 626 908 q 883 817 883 908 q 881 792 883 806 l 674 717 l 707 792 q 708 797 708 794 q 671 818 708 818 q 599 764 622 818 l 547 650 q 540 621 540 635 q 635 510 540 564 l 613 460 q 396 310 438 404 l 321 143 q 310 104 310 117 q 356 82 310 82 q 553 124 449 82 q 717 257 681 175 l 754 208 l 754 207 m 788 1081 q 745 1036 775 1053 q 688 1019 715 1019 q 636 1058 636 1019 q 642 1081 636 1068 q 683 1125 654 1108 q 742 1142 713 1142 q 792 1103 792 1142 q 788 1081 792 1092 m 939 1081 q 898 1036 928 1053 q 840 1019 868 1019 q 789 1058 789 1019 q 794 1081 789 1068 q 836 1124 806 1107 q 894 1142 867 1142 q 944 1103 944 1142 q 939 1081 944 1092 z "},"Ì":{"ha":318,"x_min":79,"x_max":664,"o":"m 290 0 l 79 0 l 422 774 q 425 783 425 778 q 410 810 425 797 q 379 822 394 822 l 139 822 q 104 861 104 822 q 142 901 104 901 l 481 901 q 647 826 647 901 q 633 774 647 803 l 290 0 m 664 999 l 550 999 l 467 1151 l 618 1151 l 664 999 z "},"Í":{"ha":318,"x_min":79,"x_max":810,"o":"m 290 0 l 79 0 l 422 774 q 425 783 425 778 q 410 810 425 797 q 379 822 394 822 l 139 822 q 104 861 104 822 q 142 901 104 901 l 481 901 q 647 826 647 901 q 633 774 647 803 l 290 0 m 810 1151 l 592 999 l 478 999 l 658 1151 l 810 1151 z "},"Î":{"ha":318,"x_min":79,"x_max":776,"o":"m 290 0 l 79 0 l 422 774 q 425 783 425 778 q 410 810 425 797 q 379 822 394 822 l 139 822 q 104 861 104 822 q 142 901 104 901 l 481 901 q 647 826 647 901 q 633 774 647 803 l 290 0 m 776 1006 l 661 1006 l 625 1096 l 511 1006 l 396 1006 l 558 1147 l 739 1147 l 776 1006 z "},"Ï":{"ha":318,"x_min":79,"x_max":764,"o":"m 290 0 l 79 0 l 422 774 q 425 783 425 778 q 410 810 425 797 q 379 822 394 822 l 139 822 q 104 861 104 822 q 142 901 104 901 l 481 901 q 647 826 647 901 q 633 774 647 803 l 290 0 m 607 1081 q 565 1036 594 1053 q 507 1019 535 1019 q 456 1058 456 1019 q 461 1081 456 1068 q 503 1125 474 1108 q 561 1142 532 1142 q 611 1103 611 1142 q 607 1081 611 1092 m 758 1081 q 717 1036 747 1053 q 660 1019 688 1019 q 608 1058 608 1019 q 614 1081 608 1068 q 656 1124 625 1107 q 714 1142 686 1142 q 764 1103 764 1142 q 758 1081 764 1092 z "},"Ð":{"ha":751,"x_min":115,"x_max":1028,"o":"m 590 257 l 810 750 q 817 778 817 765 q 761 824 817 824 q 660 750 693 824 l 382 125 q 378 110 378 117 q 393 97 378 97 q 444 114 411 97 q 590 257 551 169 m 779 229 q 578 47 725 108 q 329 0 464 0 l 115 0 l 458 774 q 461 783 461 778 q 445 810 461 797 q 415 822 429 822 l 175 822 q 140 861 140 822 q 178 901 140 901 l 515 901 q 674 861 644 901 q 843 906 731 906 q 963 885 910 906 q 1028 807 1028 858 q 1018 767 1028 789 l 779 229 m 565 399 l 226 399 l 272 500 l 610 500 l 565 399 z "},"Ñ":{"ha":688,"x_min":67,"x_max":1010,"o":"m 931 207 q 776 64 896 129 q 565 0 663 0 q 499 24 528 0 q 471 82 471 47 q 479 118 471 100 l 771 774 q 778 799 778 788 q 758 817 778 817 q 651 761 714 817 q 574 664 594 711 l 278 0 l 67 0 l 411 774 q 413 783 413 778 q 397 810 413 797 q 367 822 382 822 l 126 822 q 93 861 93 822 q 131 901 93 901 l 468 901 q 631 853 606 901 q 824 908 729 908 q 926 883 878 908 q 981 808 981 854 q 974 774 981 792 l 690 139 q 689 132 689 135 q 703 122 689 122 q 810 167 746 122 q 893 257 874 213 l 931 207 m 1010 1154 q 875 1053 965 1053 q 801 1080 840 1053 q 743 1107 761 1107 q 675 1056 711 1107 l 660 1056 q 794 1154 707 1154 q 867 1128 828 1154 q 926 1101 907 1101 q 996 1154 961 1101 l 1010 1154 z "},"Ò":{"ha":663,"x_min":99,"x_max":1118,"o":"m 486 197 l 694 664 q 706 725 706 692 q 644 817 706 817 q 593 774 613 817 l 336 197 q 331 174 331 185 q 390 125 331 125 q 486 197 454 125 m 864 785 q 872 821 872 801 q 854 847 872 847 q 825 819 825 847 q 835 794 825 806 q 857 783 844 783 q 864 785 860 783 m 1114 767 q 904 681 1065 697 l 678 174 q 325 0 600 0 q 99 110 99 0 q 114 174 99 138 l 361 728 q 493 864 401 817 q 665 904 571 904 q 776 888 724 904 q 876 919 821 919 q 960 850 960 919 q 935 774 960 815 q 974 767 957 767 q 1072 806 1019 767 q 1085 810 1078 810 q 1107 800 1096 810 q 1118 779 1118 790 q 1114 767 1118 772 m 858 999 l 744 999 l 661 1151 l 813 1151 l 858 999 z "},"Ó":{"ha":663,"x_min":99,"x_max":1118,"o":"m 486 197 l 694 664 q 706 725 706 692 q 644 817 706 817 q 593 774 613 817 l 336 197 q 331 174 331 185 q 390 125 331 125 q 486 197 454 125 m 864 785 q 872 821 872 801 q 854 847 872 847 q 825 819 825 847 q 835 794 825 806 q 857 783 844 783 q 864 785 860 783 m 1114 767 q 904 681 1065 697 l 678 174 q 325 0 600 0 q 99 110 99 0 q 114 174 99 138 l 361 728 q 493 864 401 817 q 665 904 571 904 q 776 888 724 904 q 876 919 821 919 q 960 850 960 919 q 935 774 960 815 q 974 767 957 767 q 1072 806 1019 767 q 1085 810 1078 810 q 1107 800 1096 810 q 1118 779 1118 790 q 1114 767 1118 772 m 963 1151 l 744 999 l 631 999 l 811 1151 l 963 1151 z "},"Ô":{"ha":663,"x_min":99,"x_max":1118,"o":"m 486 197 l 694 664 q 706 725 706 692 q 644 817 706 817 q 593 774 613 817 l 336 197 q 331 174 331 185 q 390 125 331 125 q 486 197 454 125 m 864 785 q 872 821 872 801 q 854 847 872 847 q 825 819 825 847 q 835 794 825 806 q 857 783 844 783 q 864 785 860 783 m 1114 767 q 904 681 1065 697 l 678 174 q 325 0 600 0 q 99 110 99 0 q 114 174 99 138 l 361 728 q 493 864 401 817 q 665 904 571 904 q 776 888 724 904 q 876 919 821 919 q 960 850 960 919 q 935 774 960 815 q 974 767 957 767 q 1072 806 1019 767 q 1085 810 1078 810 q 1107 800 1096 810 q 1118 779 1118 790 q 1114 767 1118 772 m 943 1006 l 828 1006 l 792 1096 l 678 1006 l 563 1006 l 725 1147 l 906 1147 l 943 1006 z "},"Õ":{"ha":663,"x_min":99,"x_max":1118,"o":"m 486 197 l 694 664 q 706 725 706 692 q 644 817 706 817 q 593 774 613 817 l 336 197 q 331 174 331 185 q 390 125 331 125 q 486 197 454 125 m 864 785 q 872 821 872 801 q 854 847 872 847 q 825 819 825 847 q 835 794 825 806 q 857 783 844 783 q 864 785 860 783 m 1114 767 q 904 681 1065 697 l 678 174 q 325 0 600 0 q 99 110 99 0 q 114 174 99 138 l 361 728 q 493 864 401 817 q 665 904 571 904 q 776 888 724 904 q 876 919 821 919 q 960 850 960 919 q 935 774 960 815 q 974 767 957 767 q 1072 806 1019 767 q 1085 810 1078 810 q 1107 800 1096 810 q 1118 779 1118 790 q 1114 767 1118 772 m 982 1154 q 847 1053 938 1053 q 773 1080 813 1053 q 715 1107 733 1107 q 647 1056 683 1107 l 632 1056 q 767 1154 679 1154 q 840 1128 800 1154 q 899 1101 879 1101 q 968 1154 933 1101 l 982 1154 z "},"Ö":{"ha":663,"x_min":99,"x_max":1118,"o":"m 486 197 l 694 664 q 706 725 706 692 q 644 817 706 817 q 593 774 613 817 l 336 197 q 331 174 331 185 q 390 125 331 125 q 486 197 454 125 m 864 785 q 872 821 872 801 q 854 847 872 847 q 825 819 825 847 q 835 794 825 806 q 857 783 844 783 q 864 785 860 783 m 1114 767 q 904 681 1065 697 l 678 174 q 325 0 600 0 q 99 110 99 0 q 114 174 99 138 l 361 728 q 493 864 401 817 q 665 904 571 904 q 776 888 724 904 q 876 919 821 919 q 960 850 960 919 q 935 774 960 815 q 974 767 957 767 q 1072 806 1019 767 q 1085 810 1078 810 q 1107 800 1096 810 q 1118 779 1118 790 q 1114 767 1118 772 m 788 1081 q 745 1036 775 1053 q 688 1019 715 1019 q 636 1058 636 1019 q 642 1081 636 1068 q 683 1125 654 1108 q 742 1142 713 1142 q 792 1103 792 1142 q 788 1081 792 1092 m 939 1081 q 898 1036 928 1053 q 840 1019 868 1019 q 789 1058 789 1019 q 794 1081 789 1068 q 836 1124 806 1107 q 894 1142 867 1142 q 944 1103 944 1142 q 939 1081 944 1092 z "},"Ø":{"ha":663,"x_min":117,"x_max":1136,"o":"m 1132 767 q 922 681 1083 697 l 694 174 q 343 0 618 0 q 117 110 117 0 q 132 174 117 138 l 379 728 q 510 864 418 817 q 682 904 589 904 q 793 888 742 904 q 894 919 838 919 q 978 850 978 919 q 951 774 978 815 q 992 767 975 767 q 1090 806 1038 767 q 1101 810 1094 810 q 1125 800 1114 810 q 1136 779 1136 790 q 1132 767 1136 772 m 724 725 q 661 817 724 817 q 610 774 629 817 l 440 392 l 722 701 q 724 725 724 713 m 504 197 l 615 449 l 350 157 q 407 125 360 125 q 504 197 472 125 m 882 785 q 889 821 889 801 q 871 847 889 847 q 842 819 842 847 q 851 794 842 806 q 874 783 861 783 q 882 785 878 783 z "},"Ù":{"ha":688,"x_min":93,"x_max":1031,"o":"m 931 207 q 776 64 896 129 q 565 0 663 0 q 485 82 485 0 q 488 108 485 94 q 215 0 376 0 q 121 85 121 0 q 143 174 121 124 l 411 774 q 413 783 413 778 q 397 810 413 797 q 367 822 382 822 l 126 822 q 93 861 93 822 q 131 901 93 901 l 468 901 q 635 826 635 901 q 622 774 635 803 l 333 125 q 329 110 329 117 q 344 97 329 97 q 390 111 361 97 q 542 257 501 165 l 829 901 l 1031 901 l 690 139 q 689 132 689 135 q 703 122 689 122 q 810 167 746 122 q 893 257 874 213 l 931 207 m 900 999 l 786 999 l 703 1151 l 854 1151 l 900 999 z "},"Ú":{"ha":688,"x_min":93,"x_max":1031,"o":"m 931 207 q 776 64 896 129 q 565 0 663 0 q 485 82 485 0 q 488 108 485 94 q 215 0 376 0 q 121 85 121 0 q 143 174 121 124 l 411 774 q 413 783 413 778 q 397 810 413 797 q 367 822 382 822 l 126 822 q 93 861 93 822 q 131 901 93 901 l 468 901 q 635 826 635 901 q 622 774 635 803 l 333 125 q 329 110 329 117 q 344 97 329 97 q 390 111 361 97 q 542 257 501 165 l 829 901 l 1031 901 l 690 139 q 689 132 689 135 q 703 122 689 122 q 810 167 746 122 q 893 257 874 213 l 931 207 m 976 1151 l 758 999 l 644 999 l 825 1151 l 976 1151 z "},"Û":{"ha":688,"x_min":93,"x_max":1031,"o":"m 931 207 q 776 64 896 129 q 565 0 663 0 q 485 82 485 0 q 488 108 485 94 q 215 0 376 0 q 121 85 121 0 q 143 174 121 124 l 411 774 q 413 783 413 778 q 397 810 413 797 q 367 822 382 822 l 126 822 q 93 861 93 822 q 131 901 93 901 l 468 901 q 635 826 635 901 q 622 774 635 803 l 333 125 q 329 110 329 117 q 344 97 329 97 q 390 111 361 97 q 542 257 501 165 l 829 901 l 1031 901 l 690 139 q 689 132 689 135 q 703 122 689 122 q 810 167 746 122 q 893 257 874 213 l 931 207 m 971 1006 l 856 1006 l 819 1096 l 706 1006 l 590 1006 l 753 1147 l 933 1147 l 971 1006 z "},"Ü":{"ha":688,"x_min":93,"x_max":1031,"o":"m 931 207 q 776 64 896 129 q 565 0 663 0 q 485 82 485 0 q 488 108 485 94 q 215 0 376 0 q 121 85 121 0 q 143 174 121 124 l 411 774 q 413 783 413 778 q 397 810 413 797 q 367 822 382 822 l 126 822 q 93 861 93 822 q 131 901 93 901 l 468 901 q 635 826 635 901 q 622 774 635 803 l 333 125 q 329 110 329 117 q 344 97 329 97 q 390 111 361 97 q 542 257 501 165 l 829 901 l 1031 901 l 690 139 q 689 132 689 135 q 703 122 689 122 q 810 167 746 122 q 893 257 874 213 l 931 207 m 815 1081 q 773 1036 803 1053 q 715 1019 743 1019 q 664 1058 664 1019 q 669 1081 664 1068 q 711 1125 682 1108 q 769 1142 740 1142 q 819 1103 819 1142 q 815 1081 819 1092 m 967 1081 q 926 1036 956 1053 q 868 1019 896 1019 q 817 1058 817 1019 q 822 1081 817 1068 q 864 1124 833 1107 q 922 1142 894 1142 q 972 1103 972 1142 q 967 1081 972 1092 z "},"Ý":{"ha":660,"x_min":93,"x_max":1039,"o":"m 381 -104 q 454 64 404 -47 q 351 -56 399 50 l 329 -107 q 328 -112 328 -110 q 349 -126 328 -126 q 381 -104 371 -126 m 604 -75 q 497 -192 571 -150 q 353 -231 431 -231 q 260 -211 301 -231 q 210 -146 210 -187 q 218 -112 210 -131 l 243 -56 q 514 197 324 125 l 524 217 q 275 136 389 136 q 182 219 182 136 q 204 308 182 258 l 411 774 q 413 783 413 778 q 397 810 413 797 q 367 822 382 822 l 126 822 q 93 861 93 822 q 131 901 93 901 l 468 901 q 635 826 635 901 q 622 774 635 803 l 393 261 q 390 246 390 251 q 406 233 390 233 q 509 284 443 233 q 592 372 575 335 l 828 901 l 1039 901 l 604 -75 m 1018 1151 l 800 999 l 686 999 l 867 1151 l 1018 1151 z "},"ß":{"ha":506,"x_min":67,"x_max":981,"o":"m 717 650 l 763 750 q 768 778 768 765 q 713 824 768 824 q 613 750 644 824 l 504 510 q 717 650 685 579 m 731 229 q 396 10 653 53 l 461 158 q 528 231 504 194 q 565 310 538 247 q 575 353 575 332 q 482 460 575 418 l 278 0 l 67 0 l 408 767 q 718 908 471 908 q 981 810 981 908 q 971 767 981 790 l 939 696 q 831 565 906 621 q 675 492 756 508 q 776 367 776 463 q 760 294 776 332 l 731 229 z "},"à":{"ha":543,"x_min":104,"x_max":782,"o":"m 342 136 l 463 408 q 465 417 465 414 q 442 433 465 433 q 400 407 411 433 l 282 143 q 272 103 272 121 q 289 83 272 83 q 342 136 318 83 m 782 208 q 626 64 746 129 q 415 0 513 0 q 364 42 371 0 q 251 -3 314 -3 q 104 97 104 -3 q 142 235 104 150 l 161 278 q 274 439 204 375 q 449 515 357 515 q 553 469 517 515 l 565 497 l 693 497 l 632 360 q 547 168 604 296 q 542 146 542 156 q 563 128 542 128 q 665 172 604 128 q 744 257 725 217 l 782 208 m 700 583 l 586 583 l 503 736 l 654 736 l 700 583 z "},"á":{"ha":543,"x_min":104,"x_max":818,"o":"m 342 136 l 463 408 q 465 417 465 414 q 442 433 465 433 q 400 407 411 433 l 282 143 q 272 103 272 121 q 289 83 272 83 q 342 136 318 83 m 782 208 q 626 64 746 129 q 415 0 513 0 q 364 42 371 0 q 251 -3 314 -3 q 104 97 104 -3 q 142 235 104 150 l 161 278 q 274 439 204 375 q 449 515 357 515 q 553 469 517 515 l 565 497 l 693 497 l 632 360 q 547 168 604 296 q 542 146 542 156 q 563 128 542 128 q 665 172 604 128 q 744 257 725 217 l 782 208 m 818 736 l 600 583 l 486 583 l 667 736 l 818 736 z "},"â":{"ha":543,"x_min":104,"x_max":782,"o":"m 342 136 l 463 408 q 465 417 465 414 q 442 433 465 433 q 400 407 411 433 l 282 143 q 272 103 272 121 q 289 83 272 83 q 342 136 318 83 m 782 208 q 626 64 746 129 q 415 0 513 0 q 364 42 371 0 q 251 -3 314 -3 q 104 97 104 -3 q 142 235 104 150 l 161 278 q 274 439 204 375 q 449 515 357 515 q 553 469 517 515 l 565 497 l 693 497 l 632 360 q 547 168 604 296 q 542 146 542 156 q 563 128 542 128 q 665 172 604 128 q 744 257 725 217 l 782 208 m 715 590 l 600 590 l 564 681 l 450 590 l 335 590 l 497 732 l 678 732 l 715 590 z "},"ã":{"ha":543,"x_min":104,"x_max":782,"o":"m 342 136 l 463 408 q 465 417 465 414 q 442 433 465 433 q 400 407 411 433 l 282 143 q 272 103 272 121 q 289 83 272 83 q 342 136 318 83 m 782 208 q 626 64 746 129 q 415 0 513 0 q 364 42 371 0 q 251 -3 314 -3 q 104 97 104 -3 q 142 235 104 150 l 161 278 q 274 439 204 375 q 449 515 357 515 q 553 469 517 515 l 565 497 l 693 497 l 632 360 q 547 168 604 296 q 542 146 542 156 q 563 128 542 128 q 665 172 604 128 q 744 257 725 217 l 782 208 m 754 739 q 619 638 710 638 q 545 665 585 638 q 488 692 506 692 q 419 640 456 692 l 404 640 q 539 739 451 739 q 612 713 572 739 q 671 686 651 686 q 740 739 706 686 l 754 739 z "},"ä":{"ha":543,"x_min":104,"x_max":782,"o":"m 342 136 l 463 408 q 465 417 465 414 q 442 433 465 433 q 400 407 411 433 l 282 143 q 272 103 272 121 q 289 83 272 83 q 342 136 318 83 m 782 208 q 626 64 746 129 q 415 0 513 0 q 364 42 371 0 q 251 -3 314 -3 q 104 97 104 -3 q 142 235 104 150 l 161 278 q 274 439 204 375 q 449 515 357 515 q 553 469 517 515 l 565 497 l 693 497 l 632 360 q 547 168 604 296 q 542 146 542 156 q 563 128 542 128 q 665 172 604 128 q 744 257 725 217 l 782 208 m 574 665 q 531 621 561 638 q 474 604 501 604 q 422 643 422 604 q 428 665 422 653 q 469 710 440 693 q 528 726 499 726 q 578 688 578 726 q 574 665 578 676 m 725 665 q 684 621 714 638 q 626 604 654 604 q 575 643 575 604 q 581 665 575 653 q 622 709 592 692 q 681 726 653 726 q 731 688 731 726 q 725 665 731 676 z "},"å":{"ha":543,"x_min":104,"x_max":782,"o":"m 342 136 l 463 408 q 465 417 465 414 q 442 433 465 433 q 400 407 411 433 l 282 143 q 272 103 272 121 q 289 83 272 83 q 342 136 318 83 m 782 208 q 626 64 746 129 q 415 0 513 0 q 364 42 371 0 q 251 -3 314 -3 q 104 97 104 -3 q 142 235 104 150 l 161 278 q 274 439 204 375 q 449 515 357 515 q 553 469 517 515 l 565 497 l 693 497 l 632 360 q 547 168 604 296 q 542 146 542 156 q 563 128 542 128 q 665 172 604 128 q 744 257 725 217 l 782 208 m 643 650 q 647 667 647 658 q 581 706 647 706 q 519 693 551 706 q 469 650 482 678 q 465 633 465 642 q 532 594 465 594 q 593 608 561 594 q 643 650 631 624 m 693 650 q 614 583 674 608 q 517 563 565 563 q 450 578 479 563 q 414 625 414 594 q 421 650 414 636 q 500 718 439 693 q 594 738 547 738 q 663 724 633 738 q 699 676 699 706 q 693 650 699 664 z "},"æ":{"ha":703,"x_min":83,"x_max":949,"o":"m 321 136 l 453 433 l 421 433 q 381 407 392 433 l 263 143 q 253 103 253 121 q 268 83 253 83 q 321 136 297 83 m 647 294 l 699 408 q 700 417 700 414 q 676 433 700 433 q 636 407 647 433 l 585 294 l 647 294 m 949 207 q 790 61 914 128 q 594 0 676 0 l 394 0 q 344 42 350 0 q 232 -3 292 -3 q 83 97 83 -3 q 121 235 83 150 l 140 278 q 254 439 185 375 q 428 515 336 515 l 788 515 q 876 447 876 515 q 828 296 876 404 q 690 217 793 217 l 551 217 l 518 143 q 508 104 508 121 q 525 83 508 83 l 565 83 q 819 163 700 83 q 913 257 890 211 l 949 208 l 949 207 z "},"ç":{"ha":435,"x_min":44,"x_max":710,"o":"m 710 207 q 551 61 675 128 q 356 0 438 0 l 250 0 q 100 99 100 0 q 139 235 100 150 l 183 335 q 274 460 217 410 q 411 515 338 515 l 549 515 q 638 446 638 515 q 633 410 638 431 l 426 335 l 460 408 q 461 417 461 414 q 438 433 461 433 q 397 407 408 433 l 279 143 q 269 104 269 121 q 286 83 269 83 l 326 83 q 581 163 460 83 q 674 257 651 210 l 710 208 l 710 207 m 306 -114 q 219 -204 282 -169 q 106 -236 163 -236 q 44 -232 79 -236 l 57 -203 q 89 -206 79 -206 q 156 -184 121 -206 q 204 -131 190 -162 q 208 -111 208 -121 q 168 -81 208 -81 q 154 -82 163 -81 l 282 39 l 324 39 l 265 -15 q 317 -72 317 -29 q 306 -114 317 -90 z "},"è":{"ha":444,"x_min":88,"x_max":697,"o":"m 396 294 l 447 408 q 449 417 449 414 q 425 433 449 433 q 385 407 396 433 l 333 294 l 396 294 m 697 207 q 539 61 663 128 q 343 0 425 0 l 238 0 q 88 99 88 0 q 126 235 88 150 l 171 335 q 261 460 204 410 q 399 515 325 515 l 536 515 q 625 447 625 515 q 576 296 625 406 q 439 217 542 217 l 300 217 l 267 143 q 257 104 257 121 q 274 83 257 83 l 314 83 q 568 163 449 83 q 661 257 639 211 l 697 208 l 697 207 m 603 583 l 489 583 l 406 736 l 557 736 l 603 583 z "},"é":{"ha":444,"x_min":88,"x_max":721,"o":"m 396 294 l 447 408 q 449 417 449 414 q 425 433 449 433 q 385 407 396 433 l 333 294 l 396 294 m 697 207 q 539 61 663 128 q 343 0 425 0 l 238 0 q 88 99 88 0 q 126 235 88 150 l 171 335 q 261 460 204 410 q 399 515 325 515 l 536 515 q 625 447 625 515 q 576 296 625 406 q 439 217 542 217 l 300 217 l 267 143 q 257 104 257 121 q 274 83 257 83 l 314 83 q 568 163 449 83 q 661 257 639 211 l 697 208 l 697 207 m 721 736 l 503 583 l 389 583 l 569 736 l 721 736 z "},"ê":{"ha":444,"x_min":88,"x_max":697,"o":"m 396 294 l 447 408 q 449 417 449 414 q 425 433 449 433 q 385 407 396 433 l 333 294 l 396 294 m 697 207 q 539 61 663 128 q 343 0 425 0 l 238 0 q 88 99 88 0 q 126 235 88 150 l 171 335 q 261 460 204 410 q 399 515 325 515 l 536 515 q 625 447 625 515 q 576 296 625 406 q 439 217 542 217 l 300 217 l 267 143 q 257 104 257 121 q 274 83 257 83 l 314 83 q 568 163 449 83 q 661 257 639 211 l 697 208 l 697 207 m 674 590 l 558 590 l 522 681 l 408 590 l 293 590 l 456 732 l 636 732 l 674 590 z "},"ë":{"ha":444,"x_min":88,"x_max":697,"o":"m 396 294 l 447 408 q 449 417 449 414 q 425 433 449 433 q 385 407 396 433 l 333 294 l 396 294 m 697 207 q 539 61 663 128 q 343 0 425 0 l 238 0 q 88 99 88 0 q 126 235 88 150 l 171 335 q 261 460 204 410 q 399 515 325 515 l 536 515 q 625 447 625 515 q 576 296 625 406 q 439 217 542 217 l 300 217 l 267 143 q 257 104 257 121 q 274 83 257 83 l 314 83 q 568 163 449 83 q 661 257 639 211 l 697 208 l 697 207 m 518 665 q 476 621 506 638 q 418 604 446 604 q 367 643 367 604 q 372 665 367 653 q 414 710 385 693 q 472 726 443 726 q 522 688 522 726 q 518 665 522 676 m 669 665 q 628 621 658 638 q 571 604 599 604 q 519 643 519 604 q 525 665 519 653 q 567 709 536 692 q 625 726 597 726 q 675 688 675 726 q 669 665 675 676 z "},"ì":{"ha":303,"x_min":93,"x_max":543,"o":"m 543 207 q 388 64 508 131 q 176 0 275 0 q 117 27 140 0 q 93 90 93 54 q 103 136 93 114 l 285 543 l 439 458 l 310 168 q 303 146 303 154 q 325 128 303 128 q 426 172 365 128 q 506 257 488 217 l 543 208 l 543 207 m 519 583 l 406 583 l 322 736 l 474 736 l 519 583 z "},"í":{"ha":303,"x_min":93,"x_max":610,"o":"m 543 207 q 388 64 508 131 q 176 0 275 0 q 117 27 140 0 q 93 90 93 54 q 103 136 93 114 l 285 543 l 439 458 l 310 168 q 303 146 303 154 q 325 128 303 128 q 426 172 365 128 q 506 257 488 217 l 543 208 l 543 207 m 610 736 l 392 583 l 278 583 l 458 736 l 610 736 z "},"î":{"ha":303,"x_min":93,"x_max":576,"o":"m 543 207 q 388 64 508 131 q 176 0 275 0 q 117 27 140 0 q 93 90 93 54 q 103 136 93 114 l 285 543 l 439 458 l 310 168 q 303 146 303 154 q 325 128 303 128 q 426 172 365 128 q 506 257 488 217 l 543 208 l 543 207 m 576 590 l 461 590 l 425 681 l 311 590 l 196 590 l 358 732 l 539 732 l 576 590 z "},"ï":{"ha":303,"x_min":93,"x_max":578,"o":"m 543 207 q 388 64 508 131 q 176 0 275 0 q 117 27 140 0 q 93 90 93 54 q 103 136 93 114 l 285 543 l 439 458 l 310 168 q 303 146 303 154 q 325 128 303 128 q 426 172 365 128 q 506 257 488 217 l 543 208 l 543 207 m 421 665 q 378 621 408 638 q 321 604 349 604 q 269 643 269 604 q 275 665 269 653 q 317 710 288 693 q 375 726 346 726 q 425 688 425 726 q 421 665 425 676 m 572 665 q 531 621 561 638 q 474 604 501 604 q 422 643 422 604 q 428 665 422 653 q 469 709 439 692 q 528 726 500 726 q 578 688 578 726 q 572 665 578 676 z "},"ð":{"ha":424,"x_min":0,"x_max":0,"o":""},"ñ":{"ha":554,"x_min":36,"x_max":799,"o":"m 797 207 q 643 64 764 131 q 432 0 529 0 q 390 11 413 0 q 344 79 344 32 q 358 136 344 104 l 481 408 q 483 422 483 417 q 464 438 483 438 q 419 407 433 438 l 239 0 l 36 0 l 278 543 l 406 475 q 563 533 463 533 q 660 432 660 533 q 635 325 660 382 l 564 168 q 558 146 558 154 q 579 128 558 128 q 681 172 621 128 q 761 257 742 217 l 799 208 l 797 207 m 740 739 q 606 638 696 638 q 531 665 571 638 q 474 692 492 692 q 406 640 442 692 l 390 640 q 525 739 438 739 q 598 713 558 739 q 657 686 638 686 q 726 739 692 686 l 740 739 z "},"ò":{"ha":490,"x_min":90,"x_max":815,"o":"m 338 118 l 446 363 q 421 410 421 369 q 425 432 421 424 q 393 396 403 419 l 269 118 q 264 94 264 106 q 283 74 264 74 q 338 118 317 74 m 565 418 q 574 456 574 436 q 556 482 574 482 q 526 454 526 482 q 536 428 526 440 q 558 417 546 417 q 565 418 563 417 m 815 400 q 607 315 747 329 q 574 239 596 290 q 329 0 467 0 l 172 0 q 90 76 90 0 q 124 201 90 125 l 179 324 q 272 453 213 399 q 413 515 340 515 l 469 515 q 578 554 514 554 q 661 485 661 554 q 636 407 661 450 q 675 401 660 401 q 774 440 708 401 l 815 400 m 617 583 l 503 583 l 419 736 l 571 736 l 617 583 z "},"ó":{"ha":490,"x_min":90,"x_max":815,"o":"m 338 118 l 446 363 q 421 410 421 369 q 425 432 421 424 q 393 396 403 419 l 269 118 q 264 94 264 106 q 283 74 264 74 q 338 118 317 74 m 565 418 q 574 456 574 436 q 556 482 574 482 q 526 454 526 482 q 536 428 526 440 q 558 417 546 417 q 565 418 563 417 m 815 400 q 607 315 747 329 q 574 239 596 290 q 329 0 467 0 l 172 0 q 90 76 90 0 q 124 201 90 125 l 179 324 q 272 453 213 399 q 413 515 340 515 l 469 515 q 578 554 514 554 q 661 485 661 554 q 636 407 661 450 q 675 401 660 401 q 774 440 708 401 l 815 400 m 707 736 l 489 583 l 375 583 l 556 736 l 707 736 z "},"ô":{"ha":490,"x_min":90,"x_max":815,"o":"m 338 118 l 446 363 q 421 410 421 369 q 425 432 421 424 q 393 396 403 419 l 269 118 q 264 94 264 106 q 283 74 264 74 q 338 118 317 74 m 565 418 q 574 456 574 436 q 556 482 574 482 q 526 454 526 482 q 536 428 526 440 q 558 417 546 417 q 565 418 563 417 m 815 400 q 607 315 747 329 q 574 239 596 290 q 329 0 467 0 l 172 0 q 90 76 90 0 q 124 201 90 125 l 179 324 q 272 453 213 399 q 413 515 340 515 l 469 515 q 578 554 514 554 q 661 485 661 554 q 636 407 661 450 q 675 401 660 401 q 774 440 708 401 l 815 400 m 701 590 l 586 590 l 550 681 l 436 590 l 321 590 l 483 732 l 664 732 l 701 590 z "},"õ":{"ha":490,"x_min":90,"x_max":815,"o":"m 338 118 l 446 363 q 421 410 421 369 q 425 432 421 424 q 393 396 403 419 l 269 118 q 264 94 264 106 q 283 74 264 74 q 338 118 317 74 m 565 418 q 574 456 574 436 q 556 482 574 482 q 526 454 526 482 q 536 428 526 440 q 558 417 546 417 q 565 418 563 417 m 815 400 q 607 315 747 329 q 574 239 596 290 q 329 0 467 0 l 172 0 q 90 76 90 0 q 124 201 90 125 l 179 324 q 272 453 213 399 q 413 515 340 515 l 469 515 q 578 554 514 554 q 661 485 661 554 q 636 407 661 450 q 675 401 660 401 q 774 440 708 401 l 815 400 m 726 739 q 592 638 682 638 q 517 665 557 638 q 460 692 478 692 q 392 640 428 692 l 376 640 q 511 739 424 739 q 584 713 544 739 q 643 686 624 686 q 713 739 678 686 l 726 739 z "},"ö":{"ha":490,"x_min":90,"x_max":815,"o":"m 338 118 l 446 363 q 421 410 421 369 q 425 432 421 424 q 393 396 403 419 l 269 118 q 264 94 264 106 q 283 74 264 74 q 338 118 317 74 m 565 418 q 574 456 574 436 q 556 482 574 482 q 526 454 526 482 q 536 428 526 440 q 558 417 546 417 q 565 418 563 417 m 815 400 q 607 315 747 329 q 574 239 596 290 q 329 0 467 0 l 172 0 q 90 76 90 0 q 124 201 90 125 l 179 324 q 272 453 213 399 q 413 515 340 515 l 469 515 q 578 554 514 554 q 661 485 661 554 q 636 407 661 450 q 675 401 660 401 q 774 440 708 401 l 815 400 m 532 665 q 490 621 519 638 q 432 604 460 604 q 381 643 381 604 q 386 665 381 653 q 428 710 399 693 q 486 726 457 726 q 536 688 536 726 q 532 665 536 676 m 683 665 q 642 621 672 638 q 585 604 613 604 q 533 643 533 604 q 539 665 533 653 q 581 709 550 692 q 639 726 611 726 q 689 688 689 726 q 683 665 689 676 z "},"ø":{"ha":490,"x_min":110,"x_max":835,"o":"m 357 118 l 465 363 q 442 410 442 369 q 446 432 442 424 q 413 396 422 419 l 289 118 q 283 94 283 106 q 303 74 283 74 q 357 118 338 74 m 586 418 q 593 456 593 436 q 575 482 593 482 q 546 454 546 482 q 556 428 546 440 q 578 417 565 417 q 586 418 582 417 m 835 400 q 626 315 767 329 q 593 239 615 290 q 350 0 488 0 l 192 0 q 110 76 110 0 q 144 201 110 125 l 199 324 q 292 453 232 399 q 432 515 360 515 l 489 515 q 597 554 533 554 q 681 485 681 554 q 656 407 681 450 q 694 401 679 401 q 793 440 728 401 l 835 400 m 501 407 l 128 33 l 207 33 l 579 407 l 501 407 z "},"ù":{"ha":528,"x_min":103,"x_max":781,"o":"m 781 207 q 626 64 746 131 q 415 0 513 0 q 364 42 371 0 q 251 -3 313 -3 q 103 97 103 -3 q 142 235 103 149 l 258 497 l 440 497 l 282 143 q 272 103 272 121 q 289 83 272 83 q 340 136 318 83 l 521 543 l 675 458 l 547 168 q 542 146 542 156 q 563 128 542 128 q 664 172 603 128 q 743 257 725 217 l 781 208 l 781 207 m 617 583 l 503 583 l 419 736 l 571 736 l 617 583 z "},"ú":{"ha":528,"x_min":103,"x_max":781,"o":"m 781 207 q 626 64 746 131 q 415 0 513 0 q 364 42 371 0 q 251 -3 313 -3 q 103 97 103 -3 q 142 235 103 149 l 258 497 l 440 497 l 282 143 q 272 103 272 121 q 289 83 272 83 q 340 136 318 83 l 521 543 l 675 458 l 547 168 q 542 146 542 156 q 563 128 542 128 q 664 172 603 128 q 743 257 725 217 l 781 208 l 781 207 m 707 736 l 489 583 l 375 583 l 556 736 l 707 736 z "},"û":{"ha":528,"x_min":103,"x_max":781,"o":"m 781 207 q 626 64 746 131 q 415 0 513 0 q 364 42 371 0 q 251 -3 313 -3 q 103 97 103 -3 q 142 235 103 149 l 258 497 l 440 497 l 282 143 q 272 103 272 121 q 289 83 272 83 q 340 136 318 83 l 521 543 l 675 458 l 547 168 q 542 146 542 156 q 563 128 542 128 q 664 172 603 128 q 743 257 725 217 l 781 208 l 781 207 m 688 590 l 572 590 l 536 681 l 422 590 l 307 590 l 469 732 l 650 732 l 688 590 z "},"ü":{"ha":528,"x_min":103,"x_max":781,"o":"m 781 207 q 626 64 746 131 q 415 0 513 0 q 364 42 371 0 q 251 -3 313 -3 q 103 97 103 -3 q 142 235 103 149 l 258 497 l 440 497 l 282 143 q 272 103 272 121 q 289 83 272 83 q 340 136 318 83 l 521 543 l 675 458 l 547 168 q 542 146 542 156 q 563 128 542 128 q 664 172 603 128 q 743 257 725 217 l 781 208 l 781 207 m 532 665 q 490 621 519 638 q 432 604 460 604 q 381 643 381 604 q 386 665 381 653 q 428 710 399 693 q 486 726 457 726 q 536 688 536 726 q 532 665 536 676 m 683 665 q 642 621 672 638 q 585 604 613 604 q 533 643 533 604 q 539 665 533 653 q 581 709 550 692 q 639 726 611 726 q 689 688 689 726 q 683 665 689 676 z "},"ý":{"ha":535,"x_min":25,"x_max":765,"o":"m 210 -107 q 272 33 229 -60 q 200 -31 224 0 q 160 -107 183 -53 q 158 -112 158 -110 q 179 -128 158 -128 q 210 -107 200 -128 m 765 207 q 632 76 735 138 q 461 7 543 22 l 425 -75 q 313 -194 392 -151 q 163 -233 242 -233 q 65 -209 106 -233 q 25 -139 25 -185 q 38 -86 25 -114 q 206 44 82 14 q 110 146 110 63 q 146 278 110 197 l 264 543 l 407 458 l 292 199 q 282 163 282 178 q 297 144 282 144 q 356 203 329 144 l 517 565 l 661 458 l 532 168 q 525 146 525 154 q 547 128 525 128 q 649 172 588 128 q 728 257 710 217 l 765 208 l 765 207 m 707 736 l 489 583 l 375 583 l 556 736 l 707 736 z "},"ÿ":{"ha":514,"x_min":25,"x_max":765,"o":"m 210 -107 q 272 33 229 -60 q 200 -31 224 0 q 160 -107 183 -53 q 158 -112 158 -110 q 179 -128 158 -128 q 210 -107 200 -128 m 765 207 q 632 76 735 138 q 461 7 543 22 l 425 -75 q 313 -194 392 -151 q 163 -233 242 -233 q 65 -209 106 -233 q 25 -139 25 -185 q 38 -86 25 -114 q 206 44 82 14 q 110 146 110 63 q 146 278 110 197 l 264 543 l 407 458 l 292 199 q 282 163 282 178 q 297 144 282 144 q 356 203 329 144 l 517 565 l 661 458 l 532 168 q 525 146 525 154 q 547 128 525 128 q 649 172 588 128 q 728 257 710 217 l 765 208 l 765 207 m 532 665 q 490 621 519 638 q 432 604 460 604 q 381 643 381 604 q 386 665 381 653 q 428 710 399 693 q 486 726 457 726 q 536 688 536 726 q 532 665 536 676 m 683 665 q 642 621 672 638 q 585 604 613 604 q 533 643 533 604 q 539 665 533 653 q 581 709 550 692 q 639 726 611 726 q 689 688 689 726 q 683 665 689 676 z "},"ı":{"ha":303,"x_min":93,"x_max":543,"o":"m 543 207 q 388 64 508 131 q 176 0 275 0 q 117 27 140 0 q 93 90 93 54 q 103 136 93 114 l 285 543 l 439 458 l 310 168 q 303 146 303 154 q 325 128 303 128 q 426 172 365 128 q 506 257 488 217 l 543 208 l 543 207 z "},"œ":{"ha":703,"x_min":85,"x_max":957,"o":"m 331 118 l 453 393 q 458 417 458 406 q 439 438 458 438 q 381 382 404 438 l 263 118 q 257 96 257 106 q 276 74 257 74 q 331 118 311 74 m 656 294 l 707 408 q 708 417 708 414 q 685 433 708 433 q 643 407 654 433 l 593 294 l 656 294 m 957 207 q 799 61 921 128 q 603 0 685 0 l 496 0 q 396 17 432 0 q 324 0 361 0 l 165 0 q 85 76 85 0 q 118 201 85 126 l 172 324 q 265 453 206 399 q 406 515 335 515 l 796 515 q 885 447 885 515 q 836 296 885 404 q 699 217 801 217 l 558 217 l 525 143 q 515 104 515 121 q 533 83 515 83 l 572 83 q 828 163 707 83 q 919 257 899 210 l 957 208 l 957 207 z "},"Ÿ":{"ha":688,"x_min":1,"x_max":947,"o":"m 289 -104 q 363 64 313 -47 q 260 -56 307 50 l 238 -107 q 236 -112 236 -110 q 257 -126 236 -126 q 289 -104 279 -126 m 513 -75 q 406 -192 479 -150 q 261 -231 339 -231 q 168 -211 210 -231 q 118 -146 118 -187 q 126 -112 118 -131 l 151 -56 q 422 197 232 125 l 432 217 q 183 136 297 136 q 90 219 90 136 q 113 308 90 258 l 319 774 q 321 783 321 778 q 306 810 321 797 q 275 822 290 822 l 35 822 q 1 861 1 822 q 39 901 1 901 l 376 901 q 543 826 543 901 q 531 774 543 803 l 301 261 q 299 246 299 251 q 314 233 299 233 q 417 284 351 233 q 500 372 483 335 l 736 901 l 947 901 l 513 -75 m 718 1081 q 676 1036 706 1053 q 618 1019 646 1019 q 567 1058 567 1019 q 572 1081 567 1068 q 614 1125 585 1108 q 672 1142 643 1142 q 722 1103 722 1142 q 718 1081 722 1092 m 869 1081 q 828 1036 858 1053 q 771 1019 799 1019 q 719 1058 719 1019 q 725 1081 719 1068 q 767 1124 736 1107 q 825 1142 797 1142 q 875 1103 875 1142 q 869 1081 875 1092 z "},"ˆ":{"ha":818,"x_min":631,"x_max":1011,"o":"m 1011 1006 l 896 1006 l 860 1096 l 746 1006 l 631 1006 l 793 1147 l 974 1147 l 1011 1006 z "},"˚":{"ha":793,"x_min":710,"x_max":994,"o":"m 939 1065 q 943 1082 943 1074 q 876 1121 943 1121 q 815 1108 847 1121 q 765 1065 778 1093 q 761 1049 761 1057 q 828 1010 761 1010 q 889 1024 857 1010 q 939 1065 926 1039 m 989 1065 q 910 999 969 1024 q 813 978 861 978 q 746 993 775 978 q 710 1040 710 1010 q 717 1065 710 1051 q 796 1133 735 1108 q 890 1153 843 1153 q 958 1139 929 1153 q 994 1092 994 1121 q 989 1065 994 1079 z "},"˜":{"ha":774,"x_min":700,"x_max":1050,"o":"m 1050 1154 q 915 1053 1006 1053 q 841 1080 881 1053 q 783 1107 801 1107 q 715 1056 751 1107 l 700 1056 q 835 1154 747 1154 q 908 1128 868 1154 q 967 1101 947 1101 q 1036 1154 1001 1101 l 1050 1154 z "},"‘":{"ha":254,"x_min":410,"x_max":654,"o":"m 410 844 q 442 936 410 899 q 572 989 490 989 q 629 975 604 989 q 654 936 654 961 q 649 911 654 924 q 593 853 633 876 q 514 831 553 831 q 492 833 501 831 q 489 819 489 826 q 529 779 489 789 l 493 753 q 410 844 410 781 z "},"’":{"ha":258,"x_min":417,"x_max":651,"o":"m 646 911 q 438 753 593 792 l 425 779 q 511 833 492 792 q 488 831 499 831 q 417 885 417 831 q 424 911 417 897 q 489 971 440 949 q 569 989 531 989 q 626 975 601 989 q 651 936 651 961 q 646 911 651 924 z "},"“":{"ha":522,"x_min":424,"x_max":904,"o":"m 424 844 q 456 936 424 899 q 586 989 504 989 q 643 975 618 989 q 668 936 668 961 q 663 911 668 924 q 607 853 647 876 q 528 831 567 831 q 506 833 515 831 q 503 819 503 826 q 543 779 503 789 l 507 753 q 424 844 424 781 m 660 844 q 692 936 660 899 q 822 989 740 989 q 879 975 854 989 q 904 936 904 961 q 899 911 904 924 q 843 853 883 876 q 764 831 803 831 q 742 833 751 831 q 739 819 739 826 q 779 779 739 789 l 743 753 q 660 844 660 781 z "},"”":{"ha":510,"x_min":431,"x_max":901,"o":"m 660 911 q 451 753 607 792 l 439 779 q 525 833 506 792 q 501 831 513 831 q 431 885 431 831 q 438 911 431 897 q 503 971 454 949 q 583 989 544 989 q 640 975 615 989 q 665 936 665 961 q 660 911 665 924 m 896 911 q 688 753 843 792 l 675 779 q 761 833 742 792 q 738 831 749 831 q 667 885 667 831 q 674 911 667 897 q 739 971 690 949 q 819 989 781 989 q 876 975 851 989 q 901 936 901 961 q 896 911 901 924 z "},"•":{"ha":665,"x_min":279,"x_max":908,"o":"m 565 503 q 554 506 554 503 l 561 521 l 558 521 q 554 515 556 519 l 544 492 l 556 492 q 561 496 560 492 l 565 503 m 589 508 q 584 508 586 508 q 579 508 582 508 q 594 521 590 513 l 588 521 l 583 521 q 576 513 579 521 l 567 492 l 572 492 q 578 500 575 500 q 581 497 578 499 q 589 508 585 500 m 908 619 l 686 478 l 647 271 l 511 379 l 279 265 l 418 474 l 314 610 l 536 631 l 703 829 l 701 633 l 908 619 z "},"…":{"ha":1515,"x_min":89,"x_max":1519,"o":"m 317 78 q 251 19 300 42 q 171 0 211 0 q 114 14 139 0 q 89 54 89 28 q 94 78 89 65 q 160 138 111 115 q 240 156 201 156 q 297 142 272 156 q 322 103 322 128 q 317 78 322 90 m 915 78 q 850 19 899 42 q 769 0 810 0 q 713 14 738 0 q 688 54 688 28 q 693 78 688 65 q 758 138 710 115 q 839 156 800 156 q 896 142 871 156 q 921 103 921 128 q 915 78 921 90 m 1514 78 q 1449 19 1497 42 q 1368 0 1408 0 q 1311 14 1336 0 q 1286 54 1286 28 q 1292 78 1286 65 q 1357 138 1308 115 q 1438 156 1399 156 q 1494 142 1469 156 q 1519 103 1519 128 q 1514 78 1519 90 z "},"©":{"ha":882,"x_min":244,"x_max":1017,"o":"m 244 385 q 275 535 244 464 q 358 658 306 606 q 481 740 410 710 q 631 771 551 771 q 781 740 710 771 q 903 658 851 710 q 986 535 956 606 q 1017 385 1017 464 q 986 235 1017 306 q 903 112 956 164 q 781 29 851 60 q 631 -1 710 -1 q 481 29 551 -1 q 358 112 410 60 q 275 235 306 164 q 244 385 244 306 m 290 383 q 317 250 290 313 q 390 142 344 188 q 499 69 436 96 q 632 42 561 42 q 765 69 703 42 q 874 142 828 96 q 948 250 921 188 q 975 383 975 313 q 948 517 975 454 q 874 626 921 579 q 765 701 828 674 q 632 728 703 728 q 499 701 561 728 q 390 626 436 674 q 317 517 344 579 q 290 383 290 454 m 713 481 q 625 531 676 531 q 547 490 576 531 q 518 379 518 450 q 549 271 518 313 q 626 229 581 229 q 673 241 650 229 q 713 272 696 253 l 782 225 q 625 139 729 139 q 548 157 583 139 q 487 208 513 175 q 447 284 461 240 q 432 379 432 328 q 445 475 432 431 q 483 552 458 519 q 544 603 508 585 q 625 621 581 621 q 785 528 733 621 l 713 481 z "},"®":{"ha":750,"x_min":294,"x_max":922,"o":"m 604 728 q 499 707 546 728 q 420 653 453 686 q 370 576 388 619 q 353 490 353 533 q 370 403 353 446 q 420 326 388 360 q 499 272 453 293 q 604 251 546 251 q 708 269 658 251 q 793 320 757 288 q 851 397 829 353 q 872 490 872 440 q 852 576 872 533 q 797 653 832 619 q 712 707 761 686 q 604 728 663 728 m 606 197 q 481 222 538 197 q 382 286 424 246 q 317 379 340 326 q 294 490 294 432 q 317 603 294 550 q 382 697 340 657 q 481 761 424 738 q 606 785 538 785 q 732 762 674 785 q 833 699 790 739 q 899 606 875 660 q 922 490 922 553 q 898 379 922 432 q 831 286 874 326 q 731 222 789 246 q 606 197 672 197 m 571 581 l 571 508 l 624 508 q 657 543 657 508 q 624 581 657 581 l 571 581 m 604 443 l 571 443 l 571 326 l 508 326 l 508 644 l 622 644 q 694 618 667 644 q 721 543 721 592 q 708 491 721 511 q 668 453 696 471 l 725 326 l 658 326 l 604 443 z "},"‹":{"ha":319,"x_min":57,"x_max":274,"o":"m 132 419 l 274 353 l 274 269 l 57 376 l 57 458 l 274 571 l 274 485 l 132 419 z "},"™":{"ha":779,"x_min":60,"x_max":700,"o":"m 240 672 l 240 363 l 158 363 l 158 672 l 60 672 l 60 747 l 336 747 l 336 672 l 240 672 m 622 575 l 539 361 l 447 583 l 447 364 l 371 364 l 371 749 l 464 749 l 538 550 l 610 749 l 700 749 l 700 364 l 622 364 l 622 575 z "},"›":{"ha":319,"x_min":57,"x_max":274,"o":"m 199 422 l 57 488 l 57 571 l 274 464 l 274 382 l 57 269 l 57 356 l 199 422 z "},"«":{"ha":519,"x_min":57,"x_max":479,"o":"m 132 419 l 274 353 l 274 269 l 57 376 l 57 458 l 274 571 l 274 485 l 132 419 m 338 419 l 479 353 l 479 269 l 263 376 l 263 458 l 479 571 l 479 485 l 338 419 z "},"»":{"ha":536,"x_min":72,"x_max":494,"o":"m 419 422 l 278 488 l 278 571 l 494 464 l 494 382 l 278 269 l 278 356 l 419 422 m 214 422 l 72 488 l 72 571 l 289 464 l 289 382 l 72 269 l 72 356 l 214 422 z "},"^":{"ha":1964,"x_min":86,"x_max":1878,"o":"m 86 407 l 88 407 l 88 472 l 181 472 l 181 511 l 156 511 l 156 633 l 181 633 l 181 676 l 156 676 l 156 728 l 765 728 l 765 664 q 732 682 756 682 q 668 575 668 682 q 735 469 668 469 q 778 496 756 469 l 778 472 l 811 472 l 811 728 l 1331 728 l 1331 692 l 1378 692 l 1378 728 l 1878 728 l 1878 0 l 86 0 l 86 407 m 1303 472 l 1303 603 q 1238 678 1303 678 q 1194 644 1204 678 q 1156 678 1182 678 q 1118 644 1132 678 l 1118 676 l 1074 676 l 1074 511 l 1047 511 l 1047 472 l 1144 472 l 1144 511 l 1118 511 l 1118 596 q 1144 628 1118 628 q 1165 596 1165 628 l 1165 472 l 1236 472 l 1236 511 l 1210 511 l 1210 596 q 1236 626 1210 626 q 1257 596 1257 626 l 1257 472 l 1303 472 m 1369 371 l 1292 371 l 1292 108 l 1336 108 l 1336 278 l 1340 278 l 1353 108 l 1433 108 l 1433 371 l 1389 371 l 1389 201 l 1385 201 l 1369 371 m 667 371 l 667 108 l 776 108 l 792 138 l 792 224 l 781 243 l 781 247 l 792 267 l 792 343 l 776 371 l 667 371 m 1147 343 l 1147 138 l 1161 108 l 1254 108 l 1271 138 l 1271 343 l 1256 371 l 1161 371 l 1147 343 m 376 371 l 376 108 l 429 108 l 429 224 l 444 224 l 444 108 l 501 108 l 501 214 l 481 243 l 481 247 l 501 275 l 501 343 l 486 371 l 376 371 m 356 407 l 401 407 l 401 485 q 435 468 411 468 q 499 574 499 468 q 432 679 499 679 q 389 651 413 679 l 389 676 l 356 676 l 356 407 m 660 572 q 583 681 660 681 q 508 572 508 681 q 583 467 508 467 q 660 572 660 467 m 1644 290 l 1697 290 l 1697 343 l 1683 371 l 1592 371 l 1576 343 l 1576 251 l 1593 224 l 1644 211 l 1644 158 l 1631 158 l 1631 197 l 1576 197 l 1576 138 l 1592 108 l 1682 108 l 1697 138 l 1697 238 l 1679 267 l 1631 278 l 1631 324 l 1644 324 l 1644 290 m 356 108 l 356 204 l 319 371 l 263 371 l 231 204 l 231 108 l 282 108 l 282 158 l 300 158 l 300 108 l 356 108 m 644 108 l 644 204 l 611 371 l 554 371 l 522 204 l 522 108 l 575 108 l 575 158 l 592 158 l 592 108 l 644 108 m 235 407 l 264 407 q 340 506 340 415 l 340 676 l 294 676 l 294 550 q 267 514 294 514 q 240 550 240 514 l 240 676 l 196 676 l 196 558 q 260 469 196 469 q 294 481 279 469 q 256 449 294 449 l 235 449 l 235 407 m 942 221 l 978 221 l 978 267 l 942 267 l 942 315 l 978 315 l 978 371 l 889 371 l 889 108 l 978 108 l 978 167 l 942 167 l 942 221 m 1092 217 l 1125 217 l 1125 263 l 1092 263 l 1092 315 l 1125 315 l 1125 371 l 1038 371 l 1038 108 l 1092 108 l 1092 217 m 1478 315 l 1478 108 l 1532 108 l 1532 315 l 1561 315 l 1561 371 l 1449 371 l 1449 315 l 1478 315 m 951 676 l 931 676 l 931 644 q 885 681 915 681 q 825 621 825 681 q 856 571 825 583 q 824 525 824 558 q 886 467 825 467 q 934 485 917 467 q 951 540 951 503 l 931 540 q 896 514 926 514 q 868 533 868 514 q 896 558 868 558 l 910 558 l 910 583 l 896 583 q 868 607 868 583 q 896 629 868 629 q 931 601 919 629 l 951 601 l 951 676 m 1522 674 l 1500 674 l 1500 644 q 1458 681 1483 681 q 1389 572 1389 681 q 1460 468 1389 468 q 1522 549 1510 468 l 1500 549 q 1465 517 1496 517 q 1433 572 1433 517 q 1465 629 1433 629 q 1500 592 1497 629 l 1522 592 l 1522 674 m 210 167 l 179 167 l 179 371 l 126 371 l 126 108 l 210 108 l 210 167 m 868 108 l 868 371 l 814 371 l 814 108 l 868 108 m 1028 511 l 1008 511 l 1008 601 q 1028 629 1008 629 q 1044 621 1036 629 l 1060 667 q 1036 678 1049 676 q 993 644 1007 678 l 993 676 l 967 676 l 967 472 l 1028 472 l 1028 511 m 1310 676 l 1310 633 l 1331 633 l 1331 472 l 1378 472 l 1378 676 l 1310 676 m 397 607 q 426 628 406 628 q 456 575 456 628 q 425 515 456 515 q 397 538 406 515 l 397 607 m 614 572 q 583 517 614 517 q 554 572 554 517 q 583 629 554 629 q 614 572 614 629 m 768 540 q 740 521 760 521 q 711 574 711 521 q 742 633 711 633 q 768 611 760 633 l 768 540 m 88 511 l 88 633 l 114 633 l 114 511 l 88 511 m 1200 158 l 1200 324 l 1215 324 l 1215 158 l 1200 158 m 88 676 l 88 728 l 114 728 l 114 676 l 88 676 m 282 197 l 282 224 l 290 293 l 293 293 l 300 224 l 300 197 l 282 197 m 575 197 l 575 224 l 582 293 l 586 293 l 592 224 l 592 197 l 575 197 m 721 224 l 736 224 l 736 158 l 721 158 l 721 224 m 721 267 l 721 324 l 736 324 l 736 267 l 721 267 m 429 267 l 429 324 l 444 324 l 444 267 l 429 267 z "}," ":{"ha":281,"x_min":0,"x_max":0,"o":""}}}
